<svg width="1280" height="720" viewBox="0 0 1280 720" fill="none" xmlns="http://www.w3.org/2000/svg">
<g clip-path="url(#clip0)">
<rect width="1280" height="720" fill="white"/>
<g clip-path="url(#clip1)">
<rect width="408" height="724" transform="translate(411 -4)" fill="#131D32"/>
<g filter="url(#filter0_d)">
<rect x="440.061" y="-315" width="568.689" height="276.183" transform="rotate(39.6042 440.061 -315)" fill="white"/>
</g>
<g filter="url(#filter1_d)">
<rect x="536.591" y="-214.447" width="410.954" height="276.183" transform="rotate(39.6042 536.591 -214.447)" fill="#32CCD6"/>
</g>
<g opacity="0.5">
<rect x="484.773" y="682" width="56.4091" height="3.09091" rx="1.54545" transform="rotate(180 484.773 682)" fill="#131D32"/>
<rect x="479.364" y="661.136" width="55.6364" height="3.09091" rx="1.54545" transform="rotate(180 479.364 661.136)" fill="#131D32"/>
<rect x="455.409" y="650.318" width="56.4091" height="2.31818" rx="1.15909" transform="rotate(180 455.409 650.318)" fill="#32CCD6"/>
<rect x="455.409" y="671.182" width="56.4091" height="2.31818" rx="1.15909" transform="rotate(180 455.409 671.182)" fill="#32CCD6"/>
<rect x="520" y="682" width="92" height="3" rx="1.5" transform="rotate(180 520 682)" fill="#131D32"/>
<rect x="551" y="661" width="127" height="3" rx="1.5" transform="rotate(180 551 661)" fill="#131D32"/>
<rect x="587" y="650" width="188" height="2" rx="1" transform="rotate(180 587 650)" fill="#32CCD6"/>
<rect x="560" y="671" width="179" height="2" rx="1" transform="rotate(180 560 671)" fill="#32CCD6"/>
</g>
<path d="M451.36 227.944C450.864 229.288 450.048 230.344 448.912 231.112C447.776 231.864 446.464 232.24 444.976 232.24C443.488 232.24 442.192 231.912 441.088 231.256C439.984 230.584 439.128 229.64 438.52 228.424C437.928 227.192 437.632 225.744 437.632 224.08C437.632 222.432 437.928 220.992 438.52 219.76C439.128 218.528 439.984 217.584 441.088 216.928C442.192 216.256 443.472 215.92 444.928 215.92C446.448 215.92 447.72 216.232 448.744 216.856C449.784 217.48 450.56 218.4 451.072 219.616L449.176 220.504C448.824 219.576 448.312 218.88 447.64 218.416C446.968 217.952 446.112 217.72 445.072 217.72C443.984 217.72 443.032 217.976 442.216 218.488C441.4 218.984 440.768 219.712 440.32 220.672C439.872 221.632 439.648 222.768 439.648 224.08C439.648 226.064 440.12 227.624 441.064 228.76C442.024 229.88 443.328 230.44 444.976 230.44C446.048 230.44 446.976 230.168 447.76 229.624C448.544 229.08 449.104 228.28 449.44 227.224L451.36 227.944ZM459.749 219.76C461.557 219.76 462.973 220.312 463.997 221.416C465.037 222.52 465.557 224.048 465.557 226C465.557 227.952 465.037 229.48 463.997 230.584C462.973 231.688 461.557 232.24 459.749 232.24C457.941 232.24 456.517 231.688 455.477 230.584C454.453 229.48 453.941 227.952 453.941 226C453.941 224.048 454.453 222.52 455.477 221.416C456.517 220.312 457.941 219.76 459.749 219.76ZM459.749 221.416C458.533 221.416 457.581 221.824 456.893 222.64C456.205 223.456 455.861 224.576 455.861 226C455.861 227.424 456.205 228.544 456.893 229.36C457.581 230.176 458.533 230.584 459.749 230.584C460.965 230.584 461.917 230.176 462.605 229.36C463.293 228.544 463.637 227.424 463.637 226C463.637 224.576 463.293 223.456 462.605 222.64C461.917 221.824 460.965 221.416 459.749 221.416ZM483.231 219.76C484.031 219.76 484.775 219.928 485.463 220.264C486.167 220.584 486.735 221.088 487.167 221.776C487.599 222.464 487.815 223.312 487.815 224.32V232H485.895V224.512C485.895 223.472 485.631 222.704 485.103 222.208C484.591 221.696 483.911 221.44 483.063 221.44C482.423 221.44 481.831 221.6 481.287 221.92C480.759 222.224 480.327 222.68 479.991 223.288C479.671 223.88 479.511 224.592 479.511 225.424V232H477.591V224.512C477.591 223.472 477.327 222.704 476.799 222.208C476.287 221.696 475.607 221.44 474.759 221.44C474.183 221.44 473.623 221.592 473.079 221.896C472.535 222.184 472.087 222.64 471.735 223.264C471.383 223.888 471.207 224.664 471.207 225.592V232H469.287V220H470.967L471.087 221.872C471.503 221.168 472.047 220.64 472.719 220.288C473.407 219.936 474.143 219.76 474.927 219.76C475.807 219.76 476.615 219.96 477.351 220.36C478.103 220.76 478.671 221.344 479.055 222.112C479.407 221.344 479.983 220.76 480.783 220.36C481.583 219.96 482.399 219.76 483.231 219.76ZM502.458 225.376C502.458 225.824 502.426 226.272 502.362 226.72H493.314C493.426 227.936 493.826 228.88 494.514 229.552C495.218 230.224 496.122 230.56 497.226 230.56C498.106 230.56 498.834 230.408 499.41 230.104C500.002 229.8 500.402 229.36 500.61 228.784L502.218 229.624C501.738 230.472 501.098 231.12 500.298 231.568C499.498 232.016 498.474 232.24 497.226 232.24C495.418 232.24 493.994 231.688 492.954 230.584C491.93 229.48 491.418 227.952 491.418 226C491.418 224.048 491.906 222.52 492.882 221.416C493.874 220.312 495.274 219.76 497.082 219.76C498.202 219.76 499.17 220.008 499.986 220.504C500.802 221 501.418 221.672 501.834 222.52C502.25 223.368 502.458 224.32 502.458 225.376ZM497.082 221.44C496.026 221.44 495.17 221.752 494.514 222.376C493.874 223 493.482 223.88 493.338 225.016H500.61C500.482 223.896 500.114 223.024 499.506 222.4C498.898 221.76 498.09 221.44 497.082 221.44ZM511.939 219.76C513.299 219.76 514.419 220.152 515.299 220.936C516.179 221.72 516.619 222.848 516.619 224.32V232H514.699V224.992C514.699 223.744 514.427 222.84 513.883 222.28C513.355 221.72 512.643 221.44 511.747 221.44C511.107 221.44 510.507 221.584 509.947 221.872C509.387 222.144 508.923 222.6 508.555 223.24C508.203 223.864 508.027 224.656 508.027 225.616V232H506.107V220H507.787L507.907 221.872C508.307 221.152 508.859 220.624 509.563 220.288C510.267 219.936 511.059 219.76 511.939 219.76ZM526.03 219.76C527.23 219.76 528.238 220.04 529.054 220.6C529.886 221.144 530.534 221.928 530.998 222.952L529.174 223.816C528.662 222.232 527.598 221.44 525.982 221.44C524.782 221.44 523.838 221.848 523.15 222.664C522.478 223.464 522.142 224.576 522.142 226C522.142 227.424 522.478 228.544 523.15 229.36C523.838 230.16 524.782 230.56 525.982 230.56C526.91 230.56 527.654 230.352 528.214 229.936C528.79 229.504 529.166 228.888 529.342 228.088L531.118 228.712C530.702 229.832 530.062 230.704 529.198 231.328C528.334 231.936 527.278 232.24 526.03 232.24C524.222 232.24 522.798 231.688 521.758 230.584C520.734 229.48 520.222 227.952 520.222 226C520.222 224.048 520.734 222.52 521.758 221.416C522.798 220.312 524.222 219.76 526.03 219.76ZM544.809 225.376C544.809 225.824 544.777 226.272 544.713 226.72H535.665C535.777 227.936 536.177 228.88 536.865 229.552C537.569 230.224 538.473 230.56 539.577 230.56C540.457 230.56 541.185 230.408 541.761 230.104C542.353 229.8 542.753 229.36 542.961 228.784L544.569 229.624C544.089 230.472 543.449 231.12 542.649 231.568C541.849 232.016 540.825 232.24 539.577 232.24C537.769 232.24 536.345 231.688 535.305 230.584C534.281 229.48 533.769 227.952 533.769 226C533.769 224.048 534.257 222.52 535.233 221.416C536.225 220.312 537.625 219.76 539.433 219.76C540.553 219.76 541.521 220.008 542.337 220.504C543.153 221 543.769 221.672 544.185 222.52C544.601 223.368 544.809 224.32 544.809 225.376ZM539.433 221.44C538.377 221.44 537.521 221.752 536.865 222.376C536.225 223 535.833 223.88 535.689 225.016H542.961C542.833 223.896 542.465 223.024 541.857 222.4C541.249 221.76 540.441 221.44 539.433 221.44ZM562.403 219.76C563.203 219.76 563.947 219.928 564.635 220.264C565.339 220.584 565.907 221.088 566.339 221.776C566.771 222.464 566.987 223.312 566.987 224.32V232H565.067V224.512C565.067 223.472 564.803 222.704 564.275 222.208C563.763 221.696 563.083 221.44 562.235 221.44C561.595 221.44 561.003 221.6 560.459 221.92C559.931 222.224 559.499 222.68 559.163 223.288C558.843 223.88 558.683 224.592 558.683 225.424V232H556.763V224.512C556.763 223.472 556.499 222.704 555.971 222.208C555.459 221.696 554.779 221.44 553.931 221.44C553.355 221.44 552.795 221.592 552.251 221.896C551.707 222.184 551.259 222.64 550.907 223.264C550.555 223.888 550.379 224.664 550.379 225.592V232H548.459V220H550.139L550.259 221.872C550.675 221.168 551.219 220.64 551.891 220.288C552.579 219.936 553.315 219.76 554.099 219.76C554.979 219.76 555.787 219.96 556.523 220.36C557.275 220.76 557.843 221.344 558.227 222.112C558.579 221.344 559.155 220.76 559.955 220.36C560.755 219.96 561.571 219.76 562.403 219.76ZM576.398 219.76C578.206 219.76 579.622 220.312 580.646 221.416C581.686 222.52 582.206 224.048 582.206 226C582.206 227.952 581.686 229.48 580.646 230.584C579.622 231.688 578.206 232.24 576.398 232.24C574.59 232.24 573.166 231.688 572.126 230.584C571.102 229.48 570.59 227.952 570.59 226C570.59 224.048 571.102 222.52 572.126 221.416C573.166 220.312 574.59 219.76 576.398 219.76ZM576.398 221.416C575.182 221.416 574.23 221.824 573.542 222.64C572.854 223.456 572.51 224.576 572.51 226C572.51 227.424 572.854 228.544 573.542 229.36C574.23 230.176 575.182 230.584 576.398 230.584C577.614 230.584 578.566 230.176 579.254 229.36C579.942 228.544 580.286 227.424 580.286 226C580.286 224.576 579.942 223.456 579.254 222.64C578.566 221.824 577.614 221.416 576.398 221.416ZM590.015 232.24C588.863 232.24 587.823 232.016 586.895 231.568C585.967 231.104 585.287 230.424 584.855 229.528L586.415 228.448C586.687 229.152 587.159 229.68 587.831 230.032C588.503 230.384 589.295 230.56 590.207 230.56C591.151 230.56 591.871 230.392 592.367 230.056C592.863 229.72 593.111 229.296 593.111 228.784C593.111 228.32 592.879 227.952 592.415 227.68C591.951 227.392 591.135 227.144 589.967 226.936C588.815 226.728 587.903 226.48 587.231 226.192C586.559 225.888 586.071 225.512 585.767 225.064C585.463 224.6 585.311 224.032 585.311 223.36C585.311 222.704 585.503 222.104 585.887 221.56C586.271 221.016 586.823 220.584 587.543 220.264C588.263 219.928 589.095 219.76 590.039 219.76C591.319 219.76 592.343 220 593.111 220.48C593.895 220.944 594.455 221.664 594.791 222.64L593.159 223.6C592.903 222.832 592.511 222.28 591.983 221.944C591.471 221.608 590.823 221.44 590.039 221.44C589.255 221.44 588.591 221.616 588.047 221.968C587.503 222.32 587.231 222.728 587.231 223.192C587.231 223.72 587.463 224.128 587.927 224.416C588.407 224.704 589.255 224.952 590.471 225.16C592.135 225.432 593.311 225.84 593.999 226.384C594.687 226.928 595.031 227.696 595.031 228.688C595.031 229.376 594.823 229.992 594.407 230.536C594.007 231.064 593.423 231.48 592.655 231.784C591.903 232.088 591.023 232.24 590.015 232.24ZM445.576 259.16C444.776 259.88 443.744 260.24 442.48 260.24C441.504 260.24 440.704 259.976 440.08 259.448C439.472 258.92 439.16 258.112 439.144 257.024V249.656H436.744V248H439.144V245.12L441.064 244.592V248H445.504V249.656H441.064V256.688C441.064 257.264 441.224 257.704 441.544 258.008C441.88 258.296 442.32 258.44 442.864 258.44C443.632 258.44 444.312 258.144 444.904 257.552L445.576 259.16ZM458.679 248V260H456.999L456.879 258.176C456.079 259.552 454.647 260.24 452.583 260.24C451.287 260.24 450.223 259.88 449.391 259.16C448.575 258.44 448.167 257.336 448.167 255.848V248H450.087V255.344C450.087 256.512 450.327 257.344 450.807 257.84C451.287 258.32 451.991 258.56 452.919 258.56C454.023 258.56 454.935 258.224 455.655 257.552C456.391 256.88 456.759 255.872 456.759 254.528V248H458.679ZM478.201 259.16C477.401 259.88 476.369 260.24 475.105 260.24C474.129 260.24 473.329 259.976 472.705 259.448C472.097 258.92 471.785 258.112 471.769 257.024V249.656H469.369V248H471.769V245.12L473.689 244.592V248H478.129V249.656H473.689V256.688C473.689 257.264 473.849 257.704 474.169 258.008C474.505 258.296 474.945 258.44 475.489 258.44C476.257 258.44 476.937 258.144 477.529 257.552L478.201 259.16ZM486.576 247.76C487.152 247.76 487.592 247.84 487.896 248L487.512 249.872C487.128 249.664 486.624 249.56 486 249.56C485.488 249.56 484.984 249.712 484.488 250.016C484.008 250.304 483.608 250.752 483.288 251.36C482.984 251.952 482.832 252.672 482.832 253.52V260H480.912V248H482.472L482.736 249.968C483.408 248.496 484.688 247.76 486.576 247.76ZM500.22 258.608C500.54 258.608 500.86 258.568 501.18 258.488L501.06 260C500.612 260.16 500.132 260.24 499.62 260.24C498.996 260.24 498.5 260.104 498.132 259.832C497.78 259.56 497.556 259.104 497.46 258.464C497.092 259.024 496.548 259.464 495.828 259.784C495.124 260.088 494.38 260.24 493.596 260.24C492.412 260.24 491.436 259.968 490.668 259.424C489.9 258.864 489.516 258.064 489.516 257.024C489.516 256.112 489.916 255.328 490.716 254.672C491.516 254 492.676 253.536 494.196 253.28L497.388 252.752V252.08C497.388 251.28 497.14 250.64 496.644 250.16C496.148 249.68 495.46 249.44 494.58 249.44C493.78 249.44 493.084 249.632 492.492 250.016C491.916 250.4 491.468 250.968 491.148 251.72L489.732 250.688C490.052 249.792 490.644 249.08 491.508 248.552C492.388 248.024 493.412 247.76 494.58 247.76C496.004 247.76 497.148 248.104 498.012 248.792C498.876 249.48 499.308 250.496 499.308 251.84V257.744C499.308 258.032 499.38 258.248 499.524 258.392C499.668 258.536 499.9 258.608 500.22 258.608ZM493.692 258.56C494.7 258.56 495.564 258.32 496.284 257.84C497.02 257.36 497.388 256.736 497.388 255.968V254.312L494.7 254.816C493.628 255.008 492.828 255.288 492.3 255.656C491.772 256.008 491.508 256.464 491.508 257.024C491.508 257.52 491.7 257.904 492.084 258.176C492.468 258.432 493.004 258.56 493.692 258.56ZM510.849 259.16C510.049 259.88 509.017 260.24 507.753 260.24C506.777 260.24 505.977 259.976 505.353 259.448C504.745 258.92 504.433 258.112 504.417 257.024V249.656H502.017V248H504.417V245.12L506.337 244.592V248H510.777V249.656H506.337V256.688C506.337 257.264 506.497 257.704 506.817 258.008C507.153 258.296 507.593 258.44 508.137 258.44C508.905 258.44 509.585 258.144 510.177 257.552L510.849 259.16ZM523.4 258.608C523.72 258.608 524.04 258.568 524.36 258.488L524.24 260C523.792 260.16 523.312 260.24 522.8 260.24C522.176 260.24 521.68 260.104 521.312 259.832C520.96 259.56 520.736 259.104 520.64 258.464C520.272 259.024 519.728 259.464 519.008 259.784C518.304 260.088 517.56 260.24 516.776 260.24C515.592 260.24 514.616 259.968 513.848 259.424C513.08 258.864 512.696 258.064 512.696 257.024C512.696 256.112 513.096 255.328 513.896 254.672C514.696 254 515.856 253.536 517.376 253.28L520.568 252.752V252.08C520.568 251.28 520.32 250.64 519.824 250.16C519.328 249.68 518.64 249.44 517.76 249.44C516.96 249.44 516.264 249.632 515.672 250.016C515.096 250.4 514.648 250.968 514.328 251.72L512.912 250.688C513.232 249.792 513.824 249.08 514.688 248.552C515.568 248.024 516.592 247.76 517.76 247.76C519.184 247.76 520.328 248.104 521.192 248.792C522.056 249.48 522.488 250.496 522.488 251.84V257.744C522.488 258.032 522.56 258.248 522.704 258.392C522.848 258.536 523.08 258.608 523.4 258.608ZM516.872 258.56C517.88 258.56 518.744 258.32 519.464 257.84C520.2 257.36 520.568 256.736 520.568 255.968V254.312L517.88 254.816C516.808 255.008 516.008 255.288 515.48 255.656C514.952 256.008 514.688 256.464 514.688 257.024C514.688 257.52 514.88 257.904 515.264 258.176C515.648 258.432 516.184 258.56 516.872 258.56ZM541.098 247.76C541.898 247.76 542.642 247.928 543.33 248.264C544.034 248.584 544.602 249.088 545.034 249.776C545.466 250.464 545.682 251.312 545.682 252.32V260H543.762V252.512C543.762 251.472 543.498 250.704 542.97 250.208C542.458 249.696 541.778 249.44 540.93 249.44C540.29 249.44 539.698 249.6 539.154 249.92C538.626 250.224 538.194 250.68 537.858 251.288C537.538 251.88 537.378 252.592 537.378 253.424V260H535.458V252.512C535.458 251.472 535.194 250.704 534.666 250.208C534.154 249.696 533.474 249.44 532.626 249.44C532.05 249.44 531.49 249.592 530.946 249.896C530.402 250.184 529.954 250.64 529.602 251.264C529.25 251.888 529.074 252.664 529.074 253.592V260H527.154V248H528.834L528.954 249.872C529.37 249.168 529.914 248.64 530.586 248.288C531.274 247.936 532.01 247.76 532.794 247.76C533.674 247.76 534.482 247.96 535.218 248.36C535.97 248.76 536.538 249.344 536.922 250.112C537.274 249.344 537.85 248.76 538.65 248.36C539.45 247.96 540.266 247.76 541.098 247.76ZM550.989 245.696C550.557 245.696 550.205 245.568 549.933 245.312C549.677 245.04 549.549 244.688 549.549 244.256C549.549 243.824 549.677 243.48 549.933 243.224C550.205 242.952 550.557 242.816 550.989 242.816C551.421 242.816 551.765 242.952 552.021 243.224C552.293 243.48 552.429 243.824 552.429 244.256C552.429 244.688 552.293 245.04 552.021 245.312C551.765 245.568 551.421 245.696 550.989 245.696ZM551.949 260H550.029V248H551.949V260ZM566.7 253.376C566.7 253.824 566.668 254.272 566.604 254.72H557.556C557.668 255.936 558.068 256.88 558.756 257.552C559.46 258.224 560.364 258.56 561.468 258.56C562.348 258.56 563.076 258.408 563.652 258.104C564.244 257.8 564.644 257.36 564.852 256.784L566.46 257.624C565.98 258.472 565.34 259.12 564.54 259.568C563.74 260.016 562.716 260.24 561.468 260.24C559.66 260.24 558.236 259.688 557.196 258.584C556.172 257.48 555.66 255.952 555.66 254C555.66 252.048 556.148 250.52 557.124 249.416C558.116 248.312 559.516 247.76 561.324 247.76C562.444 247.76 563.412 248.008 564.228 248.504C565.044 249 565.66 249.672 566.076 250.52C566.492 251.368 566.7 252.32 566.7 253.376ZM561.324 249.44C560.268 249.44 559.412 249.752 558.756 250.376C558.116 251 557.724 251.88 557.58 253.016H564.852C564.724 251.896 564.356 251.024 563.748 250.4C563.14 249.76 562.332 249.44 561.324 249.44ZM576.181 247.76C577.541 247.76 578.661 248.152 579.541 248.936C580.421 249.72 580.861 250.848 580.861 252.32V260H578.941V252.992C578.941 251.744 578.669 250.84 578.125 250.28C577.597 249.72 576.885 249.44 575.989 249.44C575.349 249.44 574.749 249.584 574.189 249.872C573.629 250.144 573.165 250.6 572.797 251.24C572.445 251.864 572.269 252.656 572.269 253.616V260H570.349V248H572.029L572.149 249.872C572.549 249.152 573.101 248.624 573.805 248.288C574.509 247.936 575.301 247.76 576.181 247.76ZM592.389 259.16C591.589 259.88 590.557 260.24 589.293 260.24C588.317 260.24 587.517 259.976 586.893 259.448C586.285 258.92 585.973 258.112 585.957 257.024V249.656H583.557V248H585.957V245.12L587.877 244.592V248H592.317V249.656H587.877V256.688C587.877 257.264 588.037 257.704 588.357 258.008C588.693 258.296 589.133 258.44 589.677 258.44C590.445 258.44 591.125 258.144 591.717 257.552L592.389 259.16ZM600.163 247.76C601.971 247.76 603.387 248.312 604.411 249.416C605.451 250.52 605.971 252.048 605.971 254C605.971 255.952 605.451 257.48 604.411 258.584C603.387 259.688 601.971 260.24 600.163 260.24C598.355 260.24 596.931 259.688 595.891 258.584C594.867 257.48 594.355 255.952 594.355 254C594.355 252.048 594.867 250.52 595.891 249.416C596.931 248.312 598.355 247.76 600.163 247.76ZM600.163 249.416C598.947 249.416 597.995 249.824 597.307 250.64C596.619 251.456 596.275 252.576 596.275 254C596.275 255.424 596.619 256.544 597.307 257.36C597.995 258.176 598.947 258.584 600.163 258.584C601.379 258.584 602.331 258.176 603.019 257.36C603.707 256.544 604.051 255.424 604.051 254C604.051 252.576 603.707 251.456 603.019 250.64C602.331 249.824 601.379 249.416 600.163 249.416Z" fill="white"/>
<path d="M440.528 160.24H449.888C452.672 160.24 454.736 160.804 456.08 161.932C457.448 163.06 458.132 164.668 458.132 166.756C458.132 168.052 457.76 169.18 457.016 170.14C456.272 171.1 455.228 171.7 453.884 171.94V171.976C455.372 172.216 456.548 172.84 457.412 173.848C458.3 174.856 458.744 176.044 458.744 177.412C458.744 179.476 457.988 181.096 456.476 182.272C454.964 183.424 452.816 184 450.032 184H440.528V160.24ZM449.6 170.464C452.624 170.464 454.136 169.3 454.136 166.972C454.136 164.644 452.624 163.48 449.6 163.48H444.308V170.464H449.6ZM450.212 180.796C451.7 180.796 452.828 180.496 453.596 179.896C454.364 179.272 454.748 178.384 454.748 177.232C454.748 176.08 454.364 175.204 453.596 174.604C452.828 173.98 451.7 173.668 450.212 173.668H444.308V180.796H450.212ZM465.768 162.976C464.952 162.976 464.316 162.772 463.86 162.364C463.404 161.932 463.176 161.332 463.176 160.564C463.176 159.796 463.404 159.208 463.86 158.8C464.316 158.392 464.952 158.188 465.768 158.188C466.584 158.188 467.208 158.392 467.64 158.8C468.096 159.208 468.324 159.796 468.324 160.564C468.324 161.332 468.096 161.932 467.64 162.364C467.208 162.772 466.584 162.976 465.768 162.976ZM467.676 184H463.824V166H467.676V184ZM489.795 174.46C489.795 175.156 489.747 175.816 489.651 176.44H476.475C476.691 178.024 477.255 179.236 478.167 180.076C479.079 180.892 480.255 181.3 481.695 181.3C482.871 181.3 483.843 181.096 484.611 180.688C485.403 180.256 485.943 179.644 486.231 178.852L489.435 180.184C488.091 182.968 485.511 184.36 481.695 184.36C478.863 184.36 476.643 183.532 475.035 181.876C473.451 180.22 472.659 177.928 472.659 175C472.659 172.048 473.427 169.756 474.963 168.124C476.499 166.468 478.659 165.64 481.443 165.64C484.083 165.64 486.135 166.444 487.599 168.052C489.063 169.66 489.795 171.796 489.795 174.46ZM481.443 168.7C480.051 168.7 478.923 169.108 478.059 169.924C477.219 170.74 476.691 171.928 476.475 173.488H486.195C486.003 171.976 485.487 170.8 484.647 169.96C483.831 169.12 482.763 168.7 481.443 168.7ZM504.305 165.64C506.297 165.64 507.917 166.216 509.165 167.368C510.437 168.52 511.073 170.176 511.073 172.336V184H507.221V173.56C507.221 170.392 505.937 168.808 503.369 168.808C502.025 168.808 500.873 169.276 499.913 170.212C498.953 171.124 498.473 172.54 498.473 174.46V184H494.621V166H498.041L498.221 168.988C498.821 167.86 499.649 167.02 500.705 166.468C501.761 165.916 502.961 165.64 504.305 165.64ZM532.329 166L525.165 184H520.953L513.753 166H518.001L523.077 180.868L528.297 166H532.329ZM551.6 174.46C551.6 175.156 551.552 175.816 551.456 176.44H538.28C538.496 178.024 539.06 179.236 539.972 180.076C540.884 180.892 542.06 181.3 543.5 181.3C544.676 181.3 545.648 181.096 546.416 180.688C547.208 180.256 547.748 179.644 548.036 178.852L551.24 180.184C549.896 182.968 547.316 184.36 543.5 184.36C540.668 184.36 538.448 183.532 536.84 181.876C535.256 180.22 534.464 177.928 534.464 175C534.464 172.048 535.232 169.756 536.768 168.124C538.304 166.468 540.464 165.64 543.248 165.64C545.888 165.64 547.94 166.444 549.404 168.052C550.868 169.66 551.6 171.796 551.6 174.46ZM543.248 168.7C541.856 168.7 540.728 169.108 539.864 169.924C539.024 170.74 538.496 171.928 538.28 173.488H548C547.808 171.976 547.292 170.8 546.452 169.96C545.636 169.12 544.568 168.7 543.248 168.7ZM566.11 165.64C568.102 165.64 569.722 166.216 570.97 167.368C572.242 168.52 572.878 170.176 572.878 172.336V184H569.026V173.56C569.026 170.392 567.742 168.808 565.174 168.808C563.83 168.808 562.678 169.276 561.718 170.212C560.758 171.124 560.278 172.54 560.278 174.46V184H556.426V166H559.846L560.026 168.988C560.626 167.86 561.454 167.02 562.51 166.468C563.566 165.916 564.766 165.64 566.11 165.64ZM580.659 162.976C579.843 162.976 579.207 162.772 578.751 162.364C578.295 161.932 578.067 161.332 578.067 160.564C578.067 159.796 578.295 159.208 578.751 158.8C579.207 158.392 579.843 158.188 580.659 158.188C581.475 158.188 582.099 158.392 582.531 158.8C582.987 159.208 583.215 159.796 583.215 160.564C583.215 161.332 582.987 161.932 582.531 162.364C582.099 162.772 581.475 162.976 580.659 162.976ZM582.567 184H578.715V166H582.567V184ZM605.261 157.9V184H601.877L601.661 180.796C601.133 181.876 600.329 182.74 599.249 183.388C598.193 184.036 596.981 184.36 595.613 184.36C593.141 184.36 591.185 183.544 589.745 181.912C588.329 180.256 587.621 177.964 587.621 175.036C587.621 172.108 588.329 169.816 589.745 168.16C591.185 166.48 593.141 165.64 595.613 165.64C596.933 165.64 598.097 165.94 599.105 166.54C600.113 167.116 600.881 167.908 601.409 168.916V157.9H605.261ZM596.477 181.264C597.989 181.264 599.189 180.724 600.077 179.644C600.965 178.564 601.409 177.088 601.409 175.216V174.784C601.409 172.912 600.965 171.448 600.077 170.392C599.189 169.312 597.989 168.772 596.477 168.772C594.917 168.772 593.693 169.324 592.805 170.428C591.941 171.508 591.509 173.032 591.509 175C591.509 176.968 591.941 178.504 592.805 179.608C593.693 180.712 594.917 181.264 596.477 181.264ZM619.154 165.64C621.962 165.64 624.158 166.468 625.742 168.124C627.326 169.78 628.118 172.072 628.118 175C628.118 177.928 627.326 180.22 625.742 181.876C624.158 183.532 621.962 184.36 619.154 184.36C616.346 184.36 614.15 183.532 612.566 181.876C610.982 180.22 610.19 177.928 610.19 175C610.19 172.072 610.982 169.78 612.566 168.124C614.15 166.468 616.346 165.64 619.154 165.64ZM619.154 168.664C617.522 168.664 616.262 169.216 615.374 170.32C614.51 171.4 614.078 172.96 614.078 175C614.078 177.04 614.51 178.612 615.374 179.716C616.262 180.796 617.522 181.336 619.154 181.336C620.786 181.336 622.046 180.784 622.934 179.68C623.822 178.576 624.266 177.016 624.266 175C624.266 172.984 623.822 171.424 622.934 170.32C622.046 169.216 620.786 168.664 619.154 168.664Z" fill="white"/>
<g filter="url(#filter2_d)">
<rect x="484" y="358" width="272" height="44" rx="7" fill="white"/>
</g>
<path d="M556.314 382.896V384H550.41V376.08H556.146V377.184H551.694V379.464H555.174V380.544H551.694V382.896H556.314ZM560.031 384.12C559.423 384.12 558.883 384.016 558.411 383.808C557.947 383.6 557.595 383.284 557.355 382.86L558.219 382.116C558.371 382.46 558.607 382.712 558.927 382.872C559.247 383.032 559.631 383.112 560.079 383.112C560.487 383.112 560.803 383.048 561.027 382.92C561.251 382.784 561.363 382.608 561.363 382.392C561.363 382.2 561.259 382.048 561.051 381.936C560.843 381.816 560.483 381.704 559.971 381.6C559.083 381.432 558.459 381.208 558.099 380.928C557.739 380.648 557.559 380.252 557.559 379.74C557.559 379.412 557.659 379.108 557.859 378.828C558.059 378.54 558.347 378.312 558.723 378.144C559.107 377.968 559.559 377.88 560.079 377.88C560.743 377.88 561.275 377.992 561.675 378.216C562.075 378.432 562.383 378.772 562.599 379.236L561.687 379.908C561.543 379.556 561.339 379.3 561.075 379.14C560.819 378.972 560.491 378.888 560.091 378.888C559.731 378.888 559.431 378.964 559.191 379.116C558.959 379.26 558.843 379.428 558.843 379.62C558.843 379.836 558.947 380.008 559.155 380.136C559.371 380.264 559.759 380.38 560.319 380.484C561.167 380.636 561.767 380.852 562.119 381.132C562.471 381.412 562.647 381.804 562.647 382.308C562.647 382.844 562.415 383.28 561.951 383.616C561.487 383.952 560.847 384.12 560.031 384.12ZM566.839 377.88C568.151 377.88 569.019 378.44 569.443 379.56L568.243 380.04C568.035 379.28 567.567 378.9 566.839 378.9C566.303 378.9 565.887 379.084 565.591 379.452C565.295 379.82 565.147 380.34 565.147 381.012C565.147 381.684 565.295 382.2 565.591 382.56C565.887 382.92 566.303 383.1 566.839 383.1C567.247 383.1 567.575 383 567.823 382.8C568.071 382.6 568.235 382.312 568.315 381.936L569.491 382.332C569.315 382.892 569.003 383.332 568.555 383.652C568.107 383.964 567.543 384.12 566.863 384.12C565.919 384.12 565.179 383.844 564.643 383.292C564.115 382.74 563.851 381.976 563.851 381C563.851 380.024 564.115 379.26 564.643 378.708C565.171 378.156 565.903 377.88 566.839 377.88ZM574.092 377.88C574.372 377.88 574.592 377.92 574.752 378L574.548 379.176C574.364 379.072 574.112 379.02 573.792 379.02C573.536 379.02 573.292 379.088 573.06 379.224C572.836 379.36 572.648 379.564 572.496 379.836C572.352 380.108 572.28 380.436 572.28 380.82V384H570.996V378H572.088L572.196 379.08C572.532 378.28 573.164 377.88 574.092 377.88ZM576.613 376.992C576.341 376.992 576.129 376.924 575.977 376.788C575.825 376.644 575.749 376.444 575.749 376.188C575.749 375.932 575.825 375.736 575.977 375.6C576.129 375.464 576.341 375.396 576.613 375.396C576.885 375.396 577.093 375.464 577.237 375.6C577.389 375.736 577.465 375.932 577.465 376.188C577.465 376.444 577.389 376.644 577.237 376.788C577.093 376.924 576.885 376.992 576.613 376.992ZM577.249 384H575.965V378H577.249V384ZM582.486 377.88C583.31 377.88 583.958 378.16 584.43 378.72C584.902 379.272 585.138 380.036 585.138 381.012C585.138 381.988 584.902 382.752 584.43 383.304C583.958 383.848 583.31 384.12 582.486 384.12C582.014 384.12 581.598 384.008 581.238 383.784C580.886 383.56 580.622 383.26 580.446 382.884L580.386 384H579.258V375.3H580.542V378.96C580.726 378.624 580.986 378.36 581.322 378.168C581.666 377.976 582.054 377.88 582.486 377.88ZM582.198 383.088C582.718 383.088 583.122 382.904 583.41 382.536C583.706 382.168 583.854 381.656 583.854 381C583.854 380.344 583.706 379.836 583.41 379.476C583.122 379.108 582.718 378.924 582.198 378.924C581.71 378.924 581.318 379.088 581.022 379.416C580.734 379.744 580.574 380.196 580.542 380.772V381.228C580.574 381.812 580.734 382.268 581.022 382.596C581.318 382.924 581.71 383.088 582.198 383.088ZM592.169 380.82C592.169 381.052 592.153 381.272 592.121 381.48H587.729C587.801 382.008 587.989 382.412 588.293 382.692C588.597 382.964 588.989 383.1 589.469 383.1C589.861 383.1 590.185 383.032 590.441 382.896C590.705 382.752 590.885 382.548 590.981 382.284L592.049 382.728C591.601 383.656 590.741 384.12 589.469 384.12C588.525 384.12 587.785 383.844 587.249 383.292C586.721 382.74 586.457 381.976 586.457 381C586.457 380.016 586.713 379.252 587.225 378.708C587.737 378.156 588.457 377.88 589.385 377.88C590.265 377.88 590.949 378.148 591.437 378.684C591.925 379.22 592.169 379.932 592.169 380.82ZM589.385 378.9C588.921 378.9 588.545 379.036 588.257 379.308C587.977 379.58 587.801 379.976 587.729 380.496H590.969C590.905 379.992 590.733 379.6 590.453 379.32C590.181 379.04 589.825 378.9 589.385 378.9ZM602.864 383.16C603.04 383.16 603.188 383.144 603.308 383.112L603.224 383.976C603.008 384.072 602.76 384.12 602.48 384.12C602.136 384.12 601.86 384.052 601.652 383.916C601.452 383.78 601.32 383.552 601.256 383.232C601.072 383.512 600.8 383.732 600.44 383.892C600.08 384.044 599.676 384.12 599.228 384.12C598.644 384.12 598.172 383.984 597.812 383.712C597.452 383.44 597.272 383.052 597.272 382.548C597.272 382.076 597.468 381.68 597.86 381.36C598.252 381.032 598.836 380.8 599.612 380.664L601.136 380.4V380.076C601.136 379.708 601.028 379.42 600.812 379.212C600.596 378.996 600.296 378.888 599.912 378.888C599.12 378.888 598.604 379.248 598.364 379.968L597.368 379.44C597.512 378.96 597.804 378.58 598.244 378.3C598.692 378.02 599.24 377.88 599.888 377.88C600.664 377.88 601.28 378.06 601.736 378.42C602.192 378.78 602.42 379.308 602.42 380.004V382.716C602.42 382.868 602.452 382.98 602.516 383.052C602.588 383.124 602.704 383.16 602.864 383.16ZM599.504 383.148C599.936 383.148 600.316 383.044 600.644 382.836C600.972 382.628 601.136 382.352 601.136 382.008V381.288L599.828 381.552C599.412 381.632 599.104 381.744 598.904 381.888C598.704 382.032 598.604 382.224 598.604 382.464C598.604 382.688 598.68 382.86 598.832 382.98C598.992 383.092 599.216 383.148 599.504 383.148ZM610.08 378V386.52H608.796V383.028C608.612 383.364 608.352 383.632 608.016 383.832C607.68 384.024 607.296 384.12 606.864 384.12C606.04 384.12 605.388 383.844 604.908 383.292C604.436 382.732 604.2 381.964 604.2 380.988C604.2 380.012 604.436 379.252 604.908 378.708C605.38 378.156 606.028 377.88 606.852 377.88C607.324 377.88 607.736 377.992 608.088 378.216C608.448 378.432 608.716 378.728 608.892 379.104L608.952 378H610.08ZM607.14 383.076C607.644 383.076 608.044 382.9 608.34 382.548C608.644 382.188 608.796 381.696 608.796 381.072V380.928C608.796 380.304 608.644 379.812 608.34 379.452C608.044 379.092 607.644 378.912 607.14 378.912C606.62 378.912 606.212 379.096 605.916 379.464C605.628 379.832 605.484 380.344 605.484 381C605.484 381.656 605.628 382.168 605.916 382.536C606.212 382.896 606.62 383.076 607.14 383.076ZM617.506 378V384H616.366L616.318 383.028C615.91 383.756 615.198 384.12 614.182 384.12C613.534 384.12 613.01 383.944 612.61 383.592C612.218 383.232 612.022 382.684 612.022 381.948V378H613.306V381.612C613.306 382.14 613.41 382.516 613.618 382.74C613.826 382.956 614.134 383.064 614.542 383.064C615.03 383.064 615.43 382.912 615.742 382.608C616.062 382.296 616.222 381.84 616.222 381.24V378H617.506ZM620.148 376.992C619.876 376.992 619.664 376.924 619.512 376.788C619.36 376.644 619.284 376.444 619.284 376.188C619.284 375.932 619.36 375.736 619.512 375.6C619.664 375.464 619.876 375.396 620.148 375.396C620.42 375.396 620.628 375.464 620.772 375.6C620.924 375.736 621 375.932 621 376.188C621 376.444 620.924 376.644 620.772 376.788C620.628 376.924 620.42 376.992 620.148 376.992ZM620.784 384H619.5V378H620.784V384ZM630.396 383.604C630.204 383.764 629.968 383.892 629.688 383.988C629.416 384.076 629.12 384.12 628.8 384.12C628.248 384.12 627.804 383.984 627.468 383.712C627.14 383.432 626.972 383 626.964 382.416V379.008H625.824V378H626.964V376.596L628.248 376.236V378H630.348V379.008H628.248V382.2C628.248 382.488 628.324 382.704 628.476 382.848C628.636 382.984 628.852 383.052 629.124 383.052C629.492 383.052 629.816 382.924 630.096 382.668L630.396 383.604ZM637.03 378V384H635.89L635.842 383.028C635.434 383.756 634.722 384.12 633.706 384.12C633.058 384.12 632.534 383.944 632.134 383.592C631.742 383.232 631.546 382.684 631.546 381.948V378H632.83V381.612C632.83 382.14 632.934 382.516 633.142 382.74C633.35 382.956 633.658 383.064 634.066 383.064C634.554 383.064 634.954 382.912 635.266 382.608C635.586 382.296 635.746 381.84 635.746 381.24V378H637.03ZM645.566 377.88C646.878 377.88 647.746 378.44 648.17 379.56L646.97 380.04C646.762 379.28 646.294 378.9 645.566 378.9C645.03 378.9 644.614 379.084 644.318 379.452C644.022 379.82 643.874 380.34 643.874 381.012C643.874 381.684 644.022 382.2 644.318 382.56C644.614 382.92 645.03 383.1 645.566 383.1C645.974 383.1 646.302 383 646.55 382.8C646.798 382.6 646.962 382.312 647.042 381.936L648.218 382.332C648.042 382.892 647.73 383.332 647.282 383.652C646.834 383.964 646.27 384.12 645.59 384.12C644.646 384.12 643.906 383.844 643.37 383.292C642.842 382.74 642.578 381.976 642.578 381C642.578 380.024 642.842 379.26 643.37 378.708C643.898 378.156 644.63 377.88 645.566 377.88ZM652.363 377.88C653.299 377.88 654.031 378.156 654.559 378.708C655.087 379.26 655.351 380.024 655.351 381C655.351 381.976 655.087 382.74 654.559 383.292C654.031 383.844 653.299 384.12 652.363 384.12C651.427 384.12 650.695 383.844 650.167 383.292C649.639 382.74 649.375 381.976 649.375 381C649.375 380.024 649.639 379.26 650.167 378.708C650.695 378.156 651.427 377.88 652.363 377.88ZM652.363 378.888C651.819 378.888 651.399 379.072 651.103 379.44C650.815 379.8 650.671 380.32 650.671 381C650.671 381.68 650.815 382.204 651.103 382.572C651.399 382.932 651.819 383.112 652.363 383.112C652.907 383.112 653.327 382.928 653.623 382.56C653.919 382.192 654.067 381.672 654.067 381C654.067 380.328 653.919 379.808 653.623 379.44C653.327 379.072 652.907 378.888 652.363 378.888ZM653.851 375.048L652.663 377.064H651.679L652.555 375.048H653.851ZM662.556 375.3V384H661.428L661.356 382.932C661.18 383.292 660.912 383.58 660.552 383.796C660.2 384.012 659.796 384.12 659.34 384.12C658.516 384.12 657.864 383.848 657.384 383.304C656.912 382.752 656.676 381.988 656.676 381.012C656.676 380.036 656.912 379.272 657.384 378.72C657.864 378.16 658.516 377.88 659.34 377.88C659.78 377.88 660.168 377.98 660.504 378.18C660.84 378.372 661.096 378.636 661.272 378.972V375.3H662.556ZM659.628 383.088C660.132 383.088 660.532 382.908 660.828 382.548C661.124 382.188 661.272 381.696 661.272 381.072V380.928C661.272 380.304 661.124 379.816 660.828 379.464C660.532 379.104 660.132 378.924 659.628 378.924C659.108 378.924 658.7 379.108 658.404 379.476C658.116 379.836 657.972 380.344 657.972 381C657.972 381.656 658.116 382.168 658.404 382.536C658.7 382.904 659.108 383.088 659.628 383.088ZM665.195 376.992C664.923 376.992 664.711 376.924 664.559 376.788C664.407 376.644 664.331 376.444 664.331 376.188C664.331 375.932 664.407 375.736 664.559 375.6C664.711 375.464 664.923 375.396 665.195 375.396C665.467 375.396 665.675 375.464 665.819 375.6C665.971 375.736 666.047 375.932 666.047 376.188C666.047 376.444 665.971 376.644 665.819 376.788C665.675 376.924 665.467 376.992 665.195 376.992ZM665.831 384H664.547V378H665.831V384ZM671.332 383.064C671.94 383.064 672.412 383.2 672.748 383.472C673.084 383.744 673.252 384.12 673.252 384.6C673.252 385.008 673.116 385.36 672.844 385.656C672.58 385.952 672.212 386.18 671.74 386.34C671.276 386.5 670.752 386.58 670.168 386.58C669.216 386.58 668.5 386.44 668.02 386.16C667.548 385.88 667.312 385.508 667.312 385.044C667.312 384.772 667.404 384.532 667.588 384.324C667.78 384.124 668.044 383.98 668.38 383.892C668.124 383.772 667.92 383.62 667.768 383.436C667.616 383.244 667.54 383.016 667.54 382.752C667.54 382.168 667.852 381.768 668.476 381.552C668.172 381.376 667.94 381.148 667.78 380.868C667.628 380.588 667.552 380.268 667.552 379.908C667.552 379.508 667.66 379.156 667.876 378.852C668.092 378.54 668.396 378.3 668.788 378.132C669.188 377.964 669.644 377.88 670.156 377.88C670.596 377.88 671 377.944 671.368 378.072C671.48 377.632 671.68 377.3 671.968 377.076C672.264 376.844 672.652 376.732 673.132 376.74L673.348 377.736C672.964 377.728 672.652 377.776 672.412 377.88C672.18 377.984 672.02 378.14 671.932 378.348C672.196 378.532 672.4 378.756 672.544 379.02C672.688 379.284 672.76 379.58 672.76 379.908C672.76 380.524 672.52 381.016 672.04 381.384C671.568 381.752 670.94 381.936 670.156 381.936C669.788 381.936 669.456 381.9 669.16 381.828C668.96 381.876 668.812 381.956 668.716 382.068C668.628 382.172 668.584 382.312 668.584 382.488C668.584 382.672 668.648 382.816 668.776 382.92C668.912 383.016 669.096 383.064 669.328 383.064H671.332ZM670.156 378.78C669.788 378.78 669.48 378.888 669.232 379.104C668.984 379.312 668.86 379.58 668.86 379.908C668.86 380.244 668.984 380.52 669.232 380.736C669.48 380.944 669.788 381.048 670.156 381.048C670.532 381.048 670.84 380.944 671.08 380.736C671.328 380.52 671.452 380.244 671.452 379.908C671.452 379.572 671.328 379.3 671.08 379.092C670.84 378.884 670.532 378.78 670.156 378.78ZM670.288 385.62C670.872 385.62 671.328 385.536 671.656 385.368C671.984 385.2 672.148 384.992 672.148 384.744C672.148 384.544 672.068 384.392 671.908 384.288C671.748 384.184 671.48 384.132 671.104 384.132H669.484C669.124 384.132 668.852 384.188 668.668 384.3C668.492 384.412 668.404 384.568 668.404 384.768C668.404 385.04 668.56 385.248 668.872 385.392C669.192 385.544 669.664 385.62 670.288 385.62ZM677.124 377.88C678.06 377.88 678.792 378.156 679.32 378.708C679.848 379.26 680.112 380.024 680.112 381C680.112 381.976 679.848 382.74 679.32 383.292C678.792 383.844 678.06 384.12 677.124 384.12C676.188 384.12 675.456 383.844 674.928 383.292C674.4 382.74 674.136 381.976 674.136 381C674.136 380.024 674.4 379.26 674.928 378.708C675.456 378.156 676.188 377.88 677.124 377.88ZM677.124 378.888C676.58 378.888 676.16 379.072 675.864 379.44C675.576 379.8 675.432 380.32 675.432 381C675.432 381.68 675.576 382.204 675.864 382.572C676.16 382.932 676.58 383.112 677.124 383.112C677.668 383.112 678.088 382.928 678.384 382.56C678.68 382.192 678.828 381.672 678.828 381C678.828 380.328 678.68 379.808 678.384 379.44C678.088 379.072 677.668 378.888 677.124 378.888Z" fill="#131D32"/>
<path d="M681.543 659.996C681.319 660.668 680.927 661.192 680.367 661.568C679.815 661.936 679.151 662.12 678.375 662.12C677.655 662.12 677.023 661.956 676.479 661.628C675.935 661.292 675.515 660.816 675.219 660.2C674.923 659.584 674.775 658.864 674.775 658.04C674.775 657.216 674.923 656.496 675.219 655.88C675.515 655.264 675.935 654.792 676.479 654.464C677.023 654.128 677.651 653.96 678.363 653.96C679.947 653.96 680.971 654.612 681.435 655.916L680.847 656.192C680.663 655.632 680.367 655.212 679.959 654.932C679.559 654.652 679.039 654.512 678.399 654.512C677.807 654.512 677.283 654.656 676.827 654.944C676.379 655.224 676.031 655.632 675.783 656.168C675.535 656.696 675.411 657.32 675.411 658.04C675.411 658.76 675.531 659.388 675.771 659.924C676.019 660.452 676.363 660.86 676.803 661.148C677.251 661.428 677.775 661.568 678.375 661.568C679.015 661.568 679.559 661.412 680.007 661.1C680.455 660.788 680.767 660.344 680.943 659.768L681.543 659.996ZM685.647 655.88C685.967 655.88 686.219 655.948 686.403 656.084L686.247 656.648C686.063 656.504 685.807 656.432 685.479 656.432C685.175 656.432 684.887 656.528 684.615 656.72C684.351 656.904 684.135 657.168 683.967 657.512C683.807 657.848 683.727 658.224 683.727 658.64V662H683.127V656H683.631L683.703 657.224C683.871 656.8 684.119 656.472 684.447 656.24C684.783 656 685.183 655.88 685.647 655.88ZM692.361 658.856C692.361 658.992 692.353 659.124 692.337 659.252H687.573C687.613 659.988 687.829 660.564 688.221 660.98C688.621 661.388 689.153 661.592 689.817 661.592C690.289 661.592 690.693 661.496 691.029 661.304C691.373 661.112 691.621 660.84 691.773 660.488L692.277 660.752C692.053 661.192 691.733 661.532 691.317 661.772C690.901 662.004 690.401 662.12 689.817 662.12C688.929 662.12 688.233 661.844 687.729 661.292C687.233 660.74 686.985 659.976 686.985 659C686.985 658.024 687.225 657.26 687.705 656.708C688.193 656.156 688.873 655.88 689.745 655.88C690.561 655.88 691.201 656.152 691.665 656.696C692.129 657.24 692.361 657.96 692.361 658.856ZM689.745 656.408C689.097 656.408 688.585 656.612 688.209 657.02C687.833 657.42 687.621 657.984 687.573 658.712H691.797C691.757 657.992 691.557 657.428 691.197 657.02C690.845 656.612 690.361 656.408 689.745 656.408ZM698.896 661.604C699.096 661.604 699.252 661.576 699.364 661.52L699.328 662C699.184 662.08 698.988 662.12 698.74 662.12C698.46 662.12 698.232 662.044 698.056 661.892C697.88 661.74 697.78 661.476 697.756 661.1C697.572 661.42 697.276 661.672 696.868 661.856C696.46 662.032 696.032 662.12 695.584 662.12C694.992 662.12 694.516 661.988 694.156 661.724C693.804 661.46 693.628 661.084 693.628 660.596C693.628 659.668 694.388 659.068 695.908 658.796L697.744 658.472V657.944C697.744 657.464 697.6 657.088 697.312 656.816C697.032 656.544 696.632 656.408 696.112 656.408C695.16 656.408 694.52 656.832 694.192 657.68L693.736 657.344C693.912 656.872 694.204 656.512 694.612 656.264C695.02 656.008 695.52 655.88 696.112 655.88C696.808 655.88 697.352 656.052 697.744 656.396C698.144 656.732 698.344 657.224 698.344 657.872V660.968C698.344 661.392 698.528 661.604 698.896 661.604ZM695.644 661.592C695.98 661.592 696.308 661.536 696.628 661.424C696.948 661.304 697.212 661.132 697.42 660.908C697.636 660.676 697.744 660.4 697.744 660.08V658.964L696.1 659.264C695.452 659.384 694.98 659.552 694.684 659.768C694.388 659.984 694.24 660.26 694.24 660.596C694.24 660.916 694.364 661.164 694.612 661.34C694.86 661.508 695.204 661.592 695.644 661.592ZM703.712 661.616C703.552 661.776 703.356 661.9 703.124 661.988C702.892 662.076 702.636 662.12 702.356 662.12C701.868 662.12 701.484 661.988 701.204 661.724C700.932 661.452 700.796 661.044 700.796 660.5V656.516H699.596V656H700.796V654.5L701.396 654.332V656H703.652V656.516H701.396V660.416C701.396 660.792 701.484 661.08 701.66 661.28C701.844 661.472 702.108 661.568 702.452 661.568C702.852 661.568 703.2 661.42 703.496 661.124L703.712 661.616ZM709.915 658.856C709.915 658.992 709.907 659.124 709.891 659.252H705.127C705.167 659.988 705.383 660.564 705.775 660.98C706.175 661.388 706.707 661.592 707.371 661.592C707.843 661.592 708.247 661.496 708.583 661.304C708.927 661.112 709.175 660.84 709.327 660.488L709.831 660.752C709.607 661.192 709.287 661.532 708.871 661.772C708.455 662.004 707.955 662.12 707.371 662.12C706.483 662.12 705.787 661.844 705.283 661.292C704.787 660.74 704.539 659.976 704.539 659C704.539 658.024 704.779 657.26 705.259 656.708C705.747 656.156 706.427 655.88 707.299 655.88C708.115 655.88 708.755 656.152 709.219 656.696C709.683 657.24 709.915 657.96 709.915 658.856ZM707.299 656.408C706.651 656.408 706.139 656.612 705.763 657.02C705.387 657.42 705.175 657.984 705.127 658.712H709.351C709.311 657.992 709.111 657.428 708.751 657.02C708.399 656.612 707.915 656.408 707.299 656.408ZM716.799 653.24V662H716.259L716.223 660.656C716.055 661.112 715.775 661.472 715.383 661.736C714.991 661.992 714.527 662.12 713.991 662.12C713.143 662.12 712.471 661.844 711.975 661.292C711.487 660.74 711.243 659.976 711.243 659C711.243 658.024 711.487 657.26 711.975 656.708C712.471 656.156 713.143 655.88 713.991 655.88C714.511 655.88 714.963 656.004 715.347 656.252C715.731 656.5 716.015 656.84 716.199 657.272V653.24H716.799ZM714.063 661.592C714.687 661.592 715.191 661.384 715.575 660.968C715.959 660.544 716.167 659.972 716.199 659.252V658.748C716.159 658.028 715.947 657.46 715.563 657.044C715.187 656.62 714.687 656.408 714.063 656.408C713.367 656.408 712.823 656.64 712.431 657.104C712.039 657.56 711.843 658.192 711.843 659C711.843 659.808 712.039 660.444 712.431 660.908C712.823 661.364 713.367 661.592 714.063 661.592ZM725.509 655.88C726.357 655.88 727.025 656.156 727.513 656.708C728.009 657.26 728.257 658.024 728.257 659C728.257 659.976 728.009 660.74 727.513 661.292C727.025 661.844 726.357 662.12 725.509 662.12C724.973 662.12 724.509 661.992 724.117 661.736C723.725 661.472 723.445 661.112 723.277 660.656L723.241 662H722.701V653.24H723.301V657.272C723.485 656.84 723.769 656.5 724.153 656.252C724.545 656.004 724.997 655.88 725.509 655.88ZM725.437 661.592C726.133 661.592 726.677 661.364 727.069 660.908C727.461 660.444 727.657 659.808 727.657 659C727.657 658.192 727.461 657.56 727.069 657.104C726.677 656.64 726.133 656.408 725.437 656.408C724.813 656.408 724.309 656.62 723.925 657.044C723.541 657.468 723.333 658.048 723.301 658.784V659.216C723.333 659.952 723.541 660.532 723.925 660.956C724.309 661.38 724.813 661.592 725.437 661.592ZM731.758 663.104C731.534 663.648 731.286 664.028 731.014 664.244C730.742 664.468 730.398 664.58 729.982 664.58C729.486 664.58 729.106 664.432 728.842 664.136L729.07 663.62C729.262 663.908 729.566 664.052 729.982 664.052C730.262 664.052 730.498 663.972 730.69 663.812C730.89 663.66 731.074 663.376 731.242 662.96L731.626 662L731.002 660.512L729.094 656H729.778L731.614 660.548L731.914 661.352L732.238 660.488L734.002 656H734.65L731.758 663.104ZM745.856 659.996C745.632 660.668 745.24 661.192 744.68 661.568C744.128 661.936 743.464 662.12 742.688 662.12C741.968 662.12 741.336 661.956 740.792 661.628C740.248 661.292 739.828 660.816 739.532 660.2C739.236 659.584 739.088 658.864 739.088 658.04C739.088 657.216 739.236 656.496 739.532 655.88C739.828 655.264 740.248 654.792 740.792 654.464C741.336 654.128 741.964 653.96 742.676 653.96C744.26 653.96 745.284 654.612 745.748 655.916L745.16 656.192C744.976 655.632 744.68 655.212 744.272 654.932C743.872 654.652 743.352 654.512 742.712 654.512C742.12 654.512 741.596 654.656 741.14 654.944C740.692 655.224 740.344 655.632 740.096 656.168C739.848 656.696 739.724 657.32 739.724 658.04C739.724 658.76 739.844 659.388 740.084 659.924C740.332 660.452 740.676 660.86 741.116 661.148C741.564 661.428 742.088 661.568 742.688 661.568C743.328 661.568 743.872 661.412 744.32 661.1C744.768 660.788 745.08 660.344 745.256 659.768L745.856 659.996ZM749.853 655.88C750.741 655.88 751.437 656.16 751.941 656.72C752.453 657.272 752.709 658.032 752.709 659C752.709 659.968 752.453 660.732 751.941 661.292C751.437 661.844 750.741 662.12 749.853 662.12C748.965 662.12 748.265 661.844 747.753 661.292C747.249 660.732 746.997 659.968 746.997 659C746.997 658.032 747.249 657.272 747.753 656.72C748.265 656.16 748.965 655.88 749.853 655.88ZM749.853 656.396C749.149 656.396 748.597 656.628 748.197 657.092C747.797 657.556 747.597 658.192 747.597 659C747.597 659.808 747.797 660.444 748.197 660.908C748.597 661.372 749.149 661.604 749.853 661.604C750.557 661.604 751.109 661.372 751.509 660.908C751.909 660.444 752.109 659.808 752.109 659C752.109 658.192 751.909 657.556 751.509 657.092C751.109 656.628 750.557 656.396 749.853 656.396ZM759.631 653.24V662H759.091L759.055 660.656C758.887 661.112 758.607 661.472 758.215 661.736C757.823 661.992 757.359 662.12 756.823 662.12C755.975 662.12 755.303 661.844 754.807 661.292C754.319 660.74 754.075 659.976 754.075 659C754.075 658.024 754.319 657.26 754.807 656.708C755.303 656.156 755.975 655.88 756.823 655.88C757.343 655.88 757.795 656.004 758.179 656.252C758.563 656.5 758.847 656.84 759.031 657.272V653.24H759.631ZM756.895 661.592C757.519 661.592 758.023 661.384 758.407 660.968C758.791 660.544 758.999 659.972 759.031 659.252V658.748C758.991 658.028 758.779 657.46 758.395 657.044C758.019 656.62 757.519 656.408 756.895 656.408C756.199 656.408 755.655 656.64 755.263 657.104C754.871 657.56 754.675 658.192 754.675 659C754.675 659.808 754.871 660.444 755.263 660.908C755.655 661.364 756.199 661.592 756.895 661.592ZM766.595 661.604C766.795 661.604 766.951 661.576 767.063 661.52L767.027 662C766.883 662.08 766.687 662.12 766.439 662.12C766.159 662.12 765.931 662.044 765.755 661.892C765.579 661.74 765.479 661.476 765.455 661.1C765.271 661.42 764.975 661.672 764.567 661.856C764.159 662.032 763.731 662.12 763.283 662.12C762.691 662.12 762.215 661.988 761.855 661.724C761.503 661.46 761.327 661.084 761.327 660.596C761.327 659.668 762.087 659.068 763.607 658.796L765.443 658.472V657.944C765.443 657.464 765.299 657.088 765.011 656.816C764.731 656.544 764.331 656.408 763.811 656.408C762.859 656.408 762.219 656.832 761.891 657.68L761.435 657.344C761.611 656.872 761.903 656.512 762.311 656.264C762.719 656.008 763.219 655.88 763.811 655.88C764.507 655.88 765.051 656.052 765.443 656.396C765.843 656.732 766.043 657.224 766.043 657.872V660.968C766.043 661.392 766.227 661.604 766.595 661.604ZM763.343 661.592C763.679 661.592 764.007 661.536 764.327 661.424C764.647 661.304 764.911 661.132 765.119 660.908C765.335 660.676 765.443 660.4 765.443 660.08V658.964L763.799 659.264C763.151 659.384 762.679 659.552 762.383 659.768C762.087 659.984 761.939 660.26 761.939 660.596C761.939 660.916 762.063 661.164 762.311 661.34C762.559 661.508 762.903 661.592 763.343 661.592ZM769.926 663.104C769.702 663.648 769.454 664.028 769.182 664.244C768.91 664.468 768.566 664.58 768.15 664.58C767.654 664.58 767.274 664.432 767.01 664.136L767.238 663.62C767.43 663.908 767.734 664.052 768.15 664.052C768.43 664.052 768.666 663.972 768.858 663.812C769.058 663.66 769.242 663.376 769.41 662.96L769.794 662L769.17 660.512L767.262 656H767.946L769.782 660.548L770.082 661.352L770.406 660.488L772.17 656H772.818L769.926 663.104ZM776.931 655.88C777.619 655.88 778.171 656.072 778.587 656.456C779.011 656.84 779.223 657.392 779.223 658.112V662H778.623V658.304C778.623 657.664 778.467 657.188 778.155 656.876C777.843 656.564 777.415 656.408 776.871 656.408C776.487 656.408 776.131 656.496 775.803 656.672C775.475 656.848 775.211 657.104 775.011 657.44C774.819 657.776 774.723 658.168 774.723 658.616V662H774.123V656H774.663L774.687 657.212C774.879 656.78 775.171 656.452 775.563 656.228C775.963 655.996 776.419 655.88 776.931 655.88ZM781.595 654.836C781.443 654.836 781.319 654.792 781.223 654.704C781.135 654.608 781.091 654.484 781.091 654.332C781.091 654.18 781.135 654.06 781.223 653.972C781.319 653.876 781.443 653.828 781.595 653.828C781.747 653.828 781.867 653.876 781.955 653.972C782.051 654.06 782.099 654.18 782.099 654.332C782.099 654.484 782.051 654.608 781.955 654.704C781.867 654.792 781.747 654.836 781.595 654.836ZM781.895 662H781.295V656H781.895V662Z" fill="white"/>
<g filter="url(#filter3_d)">
<rect x="444" y="462.092" width="344.25" height="56.0846" rx="7" fill="#32CCD6"/>
</g>
<path d="M593.458 487H592.174V479.08H593.458V487ZM602.299 487H600.775L597.715 482.008L596.947 480.544H596.935L596.983 481.888V487H595.807V479.08H597.319L600.367 484.06L601.147 485.536H601.159L601.111 484.192V479.08H602.299V487ZM605.927 487H604.643V479.08H605.927V487ZM614.84 484.9C614.6 485.612 614.188 486.16 613.604 486.544C613.028 486.928 612.348 487.12 611.564 487.12C610.804 487.12 610.144 486.956 609.584 486.628C609.024 486.3 608.592 485.828 608.288 485.212C607.984 484.596 607.832 483.872 607.832 483.04C607.832 482.208 607.984 481.484 608.288 480.868C608.592 480.252 609.024 479.78 609.584 479.452C610.144 479.124 610.8 478.96 611.552 478.96C612.344 478.96 613.008 479.124 613.544 479.452C614.088 479.78 614.48 480.264 614.72 480.904L613.508 481.444C613.348 480.972 613.116 480.628 612.812 480.412C612.508 480.188 612.112 480.076 611.624 480.076C610.88 480.076 610.284 480.34 609.836 480.868C609.396 481.388 609.176 482.112 609.176 483.04C609.176 483.976 609.388 484.704 609.812 485.224C610.236 485.744 610.824 486.004 611.576 486.004C612.088 486.004 612.516 485.876 612.86 485.62C613.212 485.364 613.464 484.988 613.616 484.492L614.84 484.9ZM617.763 487H616.479V479.08H617.763V487ZM624.588 484.924H621.252L620.496 487H619.176L622.164 479.08H623.7L626.688 487H625.332L624.588 484.924ZM624.204 483.88L623.292 481.336L622.932 480.196H622.896L622.56 481.312L621.624 483.88H624.204ZM631.068 483.832H629.364V487H628.092V479.08H631.32C632.176 479.08 632.852 479.292 633.348 479.716C633.844 480.132 634.092 480.712 634.092 481.456C634.092 482.024 633.944 482.5 633.648 482.884C633.36 483.26 632.948 483.528 632.412 483.688L634.56 487H633.084L631.068 483.832ZM629.364 482.764H631.212C631.732 482.764 632.12 482.66 632.376 482.452C632.632 482.236 632.76 481.908 632.76 481.468C632.76 481.028 632.632 480.704 632.376 480.496C632.12 480.28 631.732 480.172 631.212 480.172H629.364V482.764Z" fill="white"/>
<g filter="url(#filter4_d)">
<path d="M626.003 69.44H657.755C661.163 69.44 663.875 70.088 665.891 71.384C667.955 72.68 669.299 74.36 669.923 76.424C670.595 78.488 670.931 80.96 670.931 83.84V104H664.595V83.84C664.595 80.096 663.467 77.624 661.211 76.424C660.059 75.8 657.731 75.488 654.227 75.488H651.275V104H644.939V75.488H632.339V104H626.003V69.44ZM688.933 104H682.597V75.488H676.693L679.573 69.44H688.933V104ZM682.309 62.24C681.685 61.424 681.373 60.536 681.373 59.576C681.373 58.616 681.685 57.752 682.309 56.984C682.933 56.168 683.893 55.76 685.189 55.76C686.485 55.76 687.445 56.168 688.069 56.984C688.693 57.752 689.005 58.616 689.005 59.576C689.005 60.536 688.693 61.424 688.069 62.24C687.445 63.008 686.485 63.392 685.189 63.392C683.893 63.392 682.933 63.008 682.309 62.24Z" fill="white"/>
</g>
<g filter="url(#filter5_d)">
<path d="M584.971 115.894H592.459V103.537C592.109 103.51 591.743 103.473 591.391 103.428C590.802 103.373 590.213 103.292 589.634 103.193C589.308 103.147 588.991 103.093 588.673 103.029C588.464 102.984 588.257 102.948 588.048 102.903C587.658 102.83 587.269 102.74 586.88 102.641C585.626 102.343 584.389 101.975 583.176 101.537C582.724 101.374 582.271 101.202 581.818 101.021C581.528 100.903 581.238 100.776 580.945 100.65C579.758 100.134 578.601 99.5539 577.478 98.9116V99.0565C576.419 98.4916 575.429 97.8084 574.525 97.0198C574.516 97.0198 574.507 97.0102 574.498 97.0015C573.692 96.4314 572.913 95.8247 572.153 95.1909C571.41 94.5659 570.694 93.9146 570.006 93.2267C569.657 92.8827 569.308 92.5283 568.984 92.1669C568.964 92.157 568.948 92.1415 568.938 92.1224C568.612 91.7732 568.304 91.4336 568.006 91.0748C567.353 90.3319 566.746 89.5715 566.172 88.7754C565.864 88.359 565.574 87.9329 565.285 87.4982C565.058 87.1638 564.848 86.8374 564.641 86.4934C564.632 86.4847 564.632 86.4759 564.624 86.4663C564.415 86.1404 564.215 85.8055 564.025 85.4615C563.528 84.5833 563.057 83.678 562.628 82.7553C562.448 82.3659 562.266 81.9766 562.104 81.5776C561.769 80.7815 561.461 79.9757 561.189 79.1612C561.09 78.8714 561 78.5816 560.909 78.2882C560.727 77.7094 560.56 77.1211 560.411 76.5318C560.356 76.324 560.302 76.1067 560.257 75.8989C560.157 75.5095 560.076 75.1289 559.995 74.7396C559.913 74.3144 559.831 73.8884 559.768 73.4633C559.686 72.9927 559.614 72.5126 559.56 72.0421C559.506 71.644 559.473 71.2564 559.433 70.8653C559.415 70.702 559.405 70.5484 559.397 70.3851C559.383 70.2984 559.374 70.211 559.369 70.1232C559.351 69.9059 559.342 69.6867 559.333 69.4711C559.297 68.8827 559.279 68.2853 559.279 67.6789C556.923 71.1726 555.307 75.111 554.53 79.2522C553.753 83.3933 553.831 87.6496 554.761 91.7592C554.769 91.7767 554.769 91.8037 554.778 91.8221C556.059 97.3968 558.856 102.509 562.861 106.594C566.866 110.679 571.922 113.578 577.471 114.97C579.923 115.588 582.442 115.898 584.971 115.894Z" fill="url(#paint0_linear)"/>
<path d="M592.459 103.537V88.3467C592.469 87.3569 592.284 86.3746 591.912 85.457C591.541 84.5393 590.991 83.7045 590.294 83.0007C589.598 82.2969 588.769 81.7382 587.855 81.3569C586.941 80.9755 585.961 80.7792 584.97 80.7792C583.98 80.7792 583 80.9755 582.086 81.3569C581.172 81.7382 580.343 82.2969 579.646 83.0007C578.95 83.7045 578.4 84.5393 578.029 85.457C577.657 86.3746 577.471 87.3569 577.482 88.3467V98.9098C582.072 101.536 587.187 103.116 592.459 103.537Z" fill="#131D32"/>
<path d="M574.502 97.0007C572.771 95.5042 571.383 93.6527 570.431 91.572C569.48 89.4912 568.987 87.23 568.988 84.9422C568.988 83.8816 569.091 82.8236 569.295 81.7829C569.507 80.7501 569.82 79.7406 570.228 78.7685C571.437 75.902 573.454 73.4488 576.032 71.7069C576.032 71.6982 576.032 71.6982 576.042 71.6982C576.458 71.3088 576.892 70.9282 577.337 70.5633C577.344 70.5625 577.35 70.559 577.354 70.5537C581.494 67.1217 586.409 64.7523 591.673 63.6517C596.937 62.5511 602.391 62.7526 607.559 64.2385C607.734 64.2743 607.908 64.3258 608.083 64.3835C602.829 58.4682 595.505 54.7927 587.621 54.114C579.737 53.4353 571.893 55.8051 565.705 60.7353C563.226 62.7127 561.061 65.0538 559.284 67.679C559.298 75.2607 561.71 82.6438 566.175 88.772C568.492 91.9435 571.303 94.7219 574.502 97.0007Z" fill="url(#paint1_linear)"/>
<path d="M615.922 115.133V101.129C615.92 101.129 615.919 101.129 615.918 101.128C615.917 101.128 615.916 101.127 615.915 101.126C615.914 101.125 615.914 101.124 615.913 101.123C615.913 101.122 615.913 101.121 615.913 101.119H615.903C615.668 100.966 615.433 100.821 615.205 100.658C614.652 100.308 614.117 99.934 613.593 99.5534C612.277 98.595 611.024 97.5519 609.844 96.4307C609.618 96.2221 609.391 96.0047 609.165 95.7873C609.129 95.7515 609.092 95.7061 609.056 95.6695C608.73 95.3535 608.422 95.0366 608.124 94.7092C607.797 94.3652 607.48 94.0108 607.163 93.6616C606.91 93.363 606.647 93.0558 606.394 92.7476C606.231 92.5486 606.068 92.3399 605.905 92.1321C605.769 91.9689 605.643 91.7969 605.515 91.6337C605.325 91.3805 605.135 91.1273 604.954 90.8733C604.89 90.786 604.827 90.6987 604.773 90.6201C604.537 90.2945 604.302 89.9593 604.085 89.6153C604.053 89.5754 604.024 89.533 603.998 89.4888C603.753 89.1177 603.517 88.7459 603.291 88.3661C603.074 88.0309 602.875 87.6965 602.694 87.3517C602.612 87.2251 602.54 87.0898 602.467 86.9536C602.278 86.628 602.096 86.3024 601.943 85.9759C601.925 85.9401 601.906 85.913 601.889 85.8764C601.68 85.4966 601.49 85.1073 601.309 84.7179C601.309 84.6996 601.3 84.6909 601.291 84.6725C601.155 84.4106 601.037 84.1487 600.92 83.8868C600.947 84.236 600.955 84.5931 600.955 84.9458V100.162C600.956 101.181 601.059 102.197 601.264 103.195C601.959 106.567 603.797 109.597 606.467 111.772C609.138 113.947 612.477 115.134 615.922 115.133Z" fill="url(#paint2_linear)"/>
<path d="M615.921 101.129V84.9421C615.919 77.7361 613.398 70.7572 608.794 65.2127C608.568 64.9325 608.332 64.6514 608.088 64.3799C607.945 64.332 607.799 64.2927 607.651 64.262C607.631 64.2452 607.605 64.2357 607.579 64.235H607.561C607.226 64.1354 606.882 64.0446 606.538 63.9539C606.484 63.9451 606.42 63.9268 606.356 63.9093C606.031 63.8273 605.695 63.7548 605.361 63.6824C604.881 63.5741 604.4 63.4833 603.911 63.4021C603.649 63.3567 603.387 63.3209 603.125 63.2755C602.808 63.2302 602.483 63.1944 602.157 63.1577C601.857 63.121 601.559 63.094 601.26 63.0704C601.107 63.0617 600.952 63.0433 600.79 63.0346C600.011 62.9805 599.223 62.9525 598.432 62.9525C598.232 62.9525 598.033 62.9525 597.843 62.9621C597.669 62.9621 597.508 62.9709 597.336 62.9805C597.242 62.9741 597.148 62.977 597.055 62.9892C596.928 62.9892 596.801 62.9979 596.675 63.0075C596.34 63.0163 596.005 63.0433 595.67 63.0704C595.534 63.08 595.398 63.0887 595.262 63.1071C594.837 63.1429 594.42 63.1883 593.994 63.252C593.732 63.2878 593.461 63.3244 593.198 63.369C593.148 63.3693 593.099 63.3788 593.053 63.3969C592.854 63.424 592.645 63.4597 592.442 63.4964C591.672 63.6317 590.902 63.8037 590.151 64.0027C589.924 64.0577 589.698 64.1206 589.48 64.1843C588.26 64.528 587.06 64.9389 585.885 65.4152C585.551 65.5514 585.224 65.6963 584.899 65.8517C584.174 66.1686 583.467 66.5213 582.771 66.8993C582.481 67.0442 582.2 67.2066 581.919 67.3698C581.113 67.8316 580.326 68.3301 579.562 68.8635C579.181 69.135 578.801 69.4065 578.426 69.6876C578.073 69.9591 577.72 70.2393 577.378 70.5204C577.369 70.5347 577.356 70.5469 577.342 70.5562C577.242 70.6287 577.152 70.7107 577.053 70.7919C576.703 71.0818 576.364 71.389 576.029 71.6972C578.664 69.9116 581.775 68.959 584.958 68.963H584.967C587.063 68.963 589.138 69.3764 591.075 70.1794C593.011 70.9825 594.769 72.1595 596.25 73.6431C598.99 76.3801 600.644 80.0184 600.904 83.8823C601.022 84.1442 601.14 84.4061 601.275 84.668C601.285 84.6863 601.293 84.695 601.293 84.7134C601.484 85.1027 601.673 85.4921 601.873 85.8718C601.891 85.9085 601.909 85.9355 601.927 85.9713C602.09 86.2978 602.271 86.6235 602.451 86.9491C602.524 87.0853 602.596 87.2206 602.678 87.3471C602.868 87.6963 603.067 88.0263 603.276 88.3616C603.502 88.7413 603.738 89.1132 603.982 89.4842C604.008 89.5285 604.037 89.5708 604.069 89.6108C604.286 89.946 604.513 90.2804 604.757 90.6156C604.812 90.6968 604.874 90.7788 604.938 90.8688C605.119 91.1228 605.309 91.376 605.5 91.6291C605.626 91.7924 605.753 91.9644 605.889 92.1276C606.043 92.3354 606.206 92.544 606.378 92.7431C606.631 93.0512 606.894 93.3541 607.147 93.6571C607.464 94.0063 607.781 94.3633 608.108 94.7046C608.407 95.0311 608.714 95.348 609.041 95.6649C609.076 95.7016 609.113 95.747 609.149 95.7828C609.375 96.0002 609.602 96.2193 609.828 96.4262C611.009 97.5473 612.261 98.5905 613.577 99.5488C614.101 99.9382 614.636 100.309 615.189 100.663C615.415 100.816 615.651 100.97 615.887 101.115H615.897C615.895 101.118 615.895 101.122 615.896 101.125C615.896 101.129 615.899 101.132 615.902 101.134C615.905 101.136 615.909 101.136 615.912 101.135C615.916 101.134 615.919 101.132 615.921 101.129Z" fill="url(#paint3_linear)"/>
<g style="mix-blend-mode:multiply" opacity="0.1">
<g style="mix-blend-mode:multiply" opacity="0.1">
<path d="M568.988 84.9423C568.988 83.8817 569.091 82.8237 569.295 81.7829C567.095 76.3154 565.682 69.4259 565.71 60.7353C563.231 62.7128 561.066 65.0539 559.289 67.679C559.303 75.2608 561.715 82.6439 566.18 88.772C568.495 91.9431 571.305 94.7215 574.502 97.0007C572.771 95.5043 571.383 93.6528 570.431 91.572C569.479 89.4913 568.987 87.2301 568.988 84.9423Z" fill="black"/>
</g>
</g>
<g style="mix-blend-mode:multiply" opacity="0.16">
<g style="mix-blend-mode:multiply" opacity="0.16">
<path d="M592.458 103.537V102.161C586.831 100.853 581.659 98.0574 577.482 94.0675V98.9108C582.072 101.537 587.186 103.116 592.458 103.537Z" fill="black"/>
</g>
</g>
<g style="mix-blend-mode:multiply" opacity="0.1">
<g style="mix-blend-mode:multiply" opacity="0.1">
<path d="M613.657 73.3455C612.469 70.3994 610.828 67.6567 608.794 65.2163C608.568 64.9361 608.332 64.655 608.088 64.3835C607.945 64.3356 607.799 64.2963 607.651 64.2656C607.631 64.2488 607.605 64.2393 607.579 64.2386H607.561C607.226 64.139 606.882 64.0482 606.538 63.9575C606.484 63.9487 606.42 63.9304 606.356 63.9129C606.031 63.8309 605.695 63.7584 605.361 63.686C604.881 63.5777 604.4 63.4869 603.911 63.4057C603.649 63.3603 603.387 63.3245 603.125 63.2791C602.808 63.2338 602.483 63.198 602.157 63.1613C601.857 63.1246 601.559 63.0976 601.26 63.074C601.107 63.0653 600.952 63.0469 600.79 63.0382C600.011 62.9841 599.223 62.9561 598.432 62.9561C598.232 62.9561 598.033 62.9561 597.843 62.9657C597.669 62.9657 597.508 62.9745 597.336 62.9841C597.242 62.9777 597.148 62.9807 597.055 62.9928C596.928 62.9928 596.801 63.0015 596.675 63.0111C596.34 63.0199 596.005 63.0469 595.67 63.074C595.534 63.0836 595.398 63.0923 595.262 63.1107C594.837 63.1465 594.42 63.1919 593.994 63.2556C593.732 63.2914 593.461 63.328 593.198 63.3726C593.148 63.373 593.099 63.3824 593.053 63.4005C592.854 63.4276 592.645 63.4633 592.442 63.5C591.672 63.6353 590.902 63.8073 590.151 64.0063C589.924 64.0613 589.698 64.1242 589.48 64.1879C588.26 64.5316 587.06 64.9426 585.885 65.4188C585.551 65.555 585.224 65.6999 584.899 65.8553C584.174 66.1722 583.467 66.5249 582.771 66.9029C582.481 67.0478 582.2 67.2102 581.919 67.3734C581.113 67.8352 580.326 68.3337 579.562 68.8671C579.181 69.1386 578.801 69.4101 578.426 69.6912C578.073 69.9627 577.72 70.2429 577.378 70.524C577.369 70.5383 577.356 70.5505 577.342 70.5598C577.242 70.6323 577.152 70.7143 577.053 70.7955C576.703 71.0853 576.364 71.3926 576.029 71.7008C578.664 69.9153 581.775 68.9626 584.958 68.9666H584.967C591.704 67.3953 601.492 67.2102 613.147 73.1037C613.322 73.1735 613.497 73.2556 613.657 73.3455Z" fill="black"/>
</g>
</g>
<g style="mix-blend-mode:multiply" opacity="0.1">
<g style="mix-blend-mode:multiply" opacity="0.1">
<path d="M615.922 110.336V101.129C615.92 101.129 615.919 101.129 615.918 101.128C615.917 101.128 615.916 101.127 615.915 101.126C615.914 101.125 615.914 101.124 615.913 101.123C615.913 101.122 615.913 101.121 615.913 101.119H615.903C615.668 100.966 615.433 100.821 615.205 100.658C614.652 100.308 614.117 99.934 613.593 99.5534C612.277 98.595 611.024 97.5519 609.844 96.4307C609.618 96.2221 609.391 96.0047 609.165 95.7873C609.129 95.7515 609.092 95.7061 609.056 95.6695C608.73 95.3535 608.422 95.0366 608.124 94.7092C607.797 94.3652 607.48 94.0108 607.163 93.6616C606.91 93.3631 606.647 93.0558 606.394 92.7476C606.231 92.5486 606.068 92.3399 605.905 92.1321C605.769 91.9689 605.643 91.7969 605.515 91.6337C605.325 91.3805 605.135 91.1273 604.954 90.8733C604.89 90.786 604.827 90.6987 604.773 90.6201C604.537 90.2945 604.302 89.9593 604.085 89.6153C604.053 89.5754 604.024 89.533 603.998 89.4888C603.753 89.1177 603.517 88.7459 603.291 88.3661C603.074 88.0309 602.875 87.6965 602.694 87.3517C602.612 87.2251 602.54 87.0898 602.467 86.9536C602.278 86.628 602.096 86.3024 601.943 85.9759C601.925 85.9401 601.906 85.913 601.889 85.8764C601.68 85.4966 601.49 85.1073 601.309 84.7179C601.309 84.6996 601.3 84.6909 601.291 84.6725C601.155 84.4106 601.037 84.1487 600.92 83.8868C600.947 84.236 600.955 84.5931 600.955 84.9458V88.9527C604.063 96.8865 608.955 103.999 615.254 109.738C615.469 109.939 615.695 110.137 615.922 110.336Z" fill="black"/>
</g>
</g>
<g style="mix-blend-mode:screen" opacity="0.6">
<g style="mix-blend-mode:screen" opacity="0.6">
<path d="M572.157 95.1857C568.456 92.0763 565.418 88.2551 563.223 83.949C561.028 79.6429 559.721 74.9397 559.38 70.1189C559.372 70.2542 559.353 70.6793 559.335 71.3227C559.322 71.8057 559.334 72.2892 559.372 72.771C559.39 73.3979 559.444 74.0234 559.534 74.6444C559.571 74.9936 559.621 75.3428 559.67 75.7129C559.743 76.0752 559.815 76.4558 559.888 76.8478C560.033 77.6265 560.259 78.4323 560.494 79.2651C560.775 80.0796 561.001 80.9491 561.372 81.7819C561.707 82.633 562.106 83.4659 562.507 84.2987C562.96 85.1132 563.386 85.9373 563.883 86.6977C564.354 87.4764 564.897 88.1913 565.405 88.888C565.939 89.5767 566.473 90.2193 567.007 90.798C567.502 91.3527 568.024 91.8816 568.574 92.3825C569.072 92.8627 569.552 93.2703 569.996 93.623C570.364 93.9321 570.748 94.2221 571.146 94.4916C571.714 94.9002 572.076 95.1359 572.157 95.1857Z" fill="white"/>
</g>
</g>
<g style="mix-blend-mode:screen" opacity="0.6">
<g style="mix-blend-mode:screen" opacity="0.6">
<path d="M615.903 101.122H615.913C615.858 101.068 615.613 100.832 615.206 100.471C614.753 100.063 614.102 99.4747 613.323 98.7772C612.942 98.4158 612.537 98.0352 612.1 97.6275C611.664 97.2198 611.24 96.7676 610.769 96.3337C609.864 95.4101 608.913 94.4236 608.007 93.4005C607.084 92.3774 606.223 91.3054 605.417 90.3136C605.037 89.7899 604.632 89.3176 604.282 88.8296C603.933 88.3416 603.594 87.8972 603.286 87.4808C602.67 86.6384 602.172 85.9322 601.819 85.4162C601.557 85.0365 601.367 84.7824 601.285 84.6742C604.488 91.4387 609.561 97.146 615.903 101.122Z" fill="white"/>
</g>
</g>
<g style="mix-blend-mode:screen" opacity="0.6">
<g style="mix-blend-mode:screen" opacity="0.6">
<path d="M598.436 62.9526C601.523 62.9481 604.594 63.381 607.559 64.2385H607.595C607.595 64.2385 607.133 64.0307 606.291 63.7313C605.132 63.3176 603.942 62.9966 602.732 62.771C601.011 62.4351 599.261 62.2684 597.508 62.2734C596.519 62.2663 595.531 62.3114 594.547 62.4087C593.541 62.5178 592.518 62.6627 591.513 62.8705C590.508 63.0783 589.512 63.3506 588.544 63.6562C588.062 63.7977 587.587 63.9641 587.122 64.1547C586.66 64.3293 586.207 64.5161 585.764 64.716C584.916 65.0801 584.091 65.4941 583.292 65.9556C582.567 66.3526 581.866 66.7898 581.191 67.2651C580.614 67.6558 580.058 68.0757 579.525 68.5231C579.036 68.9037 578.646 69.2834 578.312 69.5706C577.741 70.132 577.406 70.4855 577.351 70.5484C583.274 65.6276 590.735 62.9396 598.436 62.9526Z" fill="white"/>
</g>
</g>
<g style="mix-blend-mode:multiply" opacity="0.3">
<g style="mix-blend-mode:multiply" opacity="0.3">
<path d="M615.921 115.133V84.9422C615.92 77.7362 613.399 70.7573 608.795 65.2128C609.419 66.0639 610.008 66.9238 610.56 67.8204C611.123 68.7306 611.637 69.6701 612.1 70.6349C612.498 71.4406 612.842 72.2647 613.159 73.0976C613.223 73.2521 613.277 73.4145 613.341 73.5777C613.713 74.5742 614.034 75.5894 614.301 76.6192C614.573 77.645 614.79 78.6844 614.953 79.7331C615.098 80.7807 615.215 81.8335 615.261 82.8837C615.307 83.9339 615.298 84.9841 615.288 86.0701L615.252 89.3001L615.207 95.7549V102.21C615.207 104.718 615.222 107.226 615.252 109.732C615.261 111.326 615.288 112.92 615.306 114.503L614.695 114.494L613.473 114.359L612.275 114.119L611.088 113.785L609.929 113.341L608.816 112.798L607.747 112.164L606.733 111.44L605.782 110.643L604.885 109.77L604.061 108.828L603.319 107.814L602.666 106.727L602.105 105.593L601.634 104.416L601.263 103.194C601.958 106.566 603.796 109.596 606.466 111.772C609.137 113.947 612.476 115.134 615.921 115.133Z" fill="black"/>
</g>
</g>
<g style="mix-blend-mode:multiply" opacity="0.3">
<g style="mix-blend-mode:multiply" opacity="0.3">
<path d="M584.971 115.894H592.459V105.275C592.342 107.04 592.278 108.815 592.197 110.58C592.124 112.2 592.07 113.81 592.022 115.432L586.299 115.287C585.267 115.269 584.262 115.278 583.266 115.2C582.264 115.129 581.267 115.008 580.277 114.838C579.291 114.683 578.314 114.471 577.352 114.204C576.375 113.946 575.413 113.635 574.47 113.271C573.538 112.955 572.623 112.511 571.708 112.112C570.83 111.633 569.916 111.216 569.083 110.655C568.209 110.157 567.407 109.559 566.583 108.98C566.176 108.69 565.797 108.356 565.406 108.047C565.007 107.741 564.626 107.411 564.265 107.061C563.903 106.717 563.522 106.382 563.169 106.029L562.121 104.934C561.772 104.584 561.469 104.173 561.135 103.793C560.818 103.404 560.482 103.032 560.192 102.616L559.296 101.394L558.481 100.117C558.192 99.6922 557.957 99.2443 557.712 98.8079C557.466 98.3714 557.195 97.9296 556.987 97.4678C556.55 96.5529 556.108 95.6346 555.764 94.6699C555.375 93.7472 555.113 92.7782 554.786 91.8275C556.067 97.4021 558.865 102.514 562.869 106.599C566.874 110.684 571.93 113.583 577.48 114.975C579.929 115.591 582.445 115.9 584.971 115.894Z" fill="black"/>
</g>
</g>
</g>
</g>
</g>
<defs>
<filter id="filter0_d" x="260" y="-315" width="622.217" height="583.318" filterUnits="userSpaceOnUse" color-interpolation-filters="sRGB">
<feFlood flood-opacity="0" result="BackgroundImageFix"/>
<feColorMatrix in="SourceAlpha" type="matrix" values="0 0 0 0 0 0 0 0 0 0 0 0 0 0 0 0 0 0 127 0"/>
<feOffset dy="4"/>
<feGaussianBlur stdDeviation="2"/>
<feColorMatrix type="matrix" values="0 0 0 0 0 0 0 0 0 0 0 0 0 0 0 0 0 0 0.25 0"/>
<feBlend mode="normal" in2="BackgroundImageFix" result="effect1_dropShadow"/>
<feBlend mode="normal" in="SourceGraphic" in2="effect1_dropShadow" result="shape"/>
</filter>
<filter id="filter1_d" x="356.53" y="-214.447" width="500.687" height="482.764" filterUnits="userSpaceOnUse" color-interpolation-filters="sRGB">
<feFlood flood-opacity="0" result="BackgroundImageFix"/>
<feColorMatrix in="SourceAlpha" type="matrix" values="0 0 0 0 0 0 0 0 0 0 0 0 0 0 0 0 0 0 127 0"/>
<feOffset dy="4"/>
<feGaussianBlur stdDeviation="2"/>
<feColorMatrix type="matrix" values="0 0 0 0 0 0 0 0 0 0 0 0 0 0 0 0 0 0 0.25 0"/>
<feBlend mode="normal" in2="BackgroundImageFix" result="effect1_dropShadow"/>
<feBlend mode="normal" in="SourceGraphic" in2="effect1_dropShadow" result="shape"/>
</filter>
<filter id="filter2_d" x="480" y="355" width="280" height="52" filterUnits="userSpaceOnUse" color-interpolation-filters="sRGB">
<feFlood flood-opacity="0" result="BackgroundImageFix"/>
<feColorMatrix in="SourceAlpha" type="matrix" values="0 0 0 0 0 0 0 0 0 0 0 0 0 0 0 0 0 0 127 0"/>
<feOffset dy="1"/>
<feGaussianBlur stdDeviation="2"/>
<feColorMatrix type="matrix" values="0 0 0 0 0 0 0 0 0 0 0 0 0 0 0 0 0 0 0.25 0"/>
<feBlend mode="normal" in2="BackgroundImageFix" result="effect1_dropShadow"/>
<feBlend mode="normal" in="SourceGraphic" in2="effect1_dropShadow" result="shape"/>
</filter>
<filter id="filter3_d" x="429" y="451.092" width="374.25" height="86.0846" filterUnits="userSpaceOnUse" color-interpolation-filters="sRGB">
<feFlood flood-opacity="0" result="BackgroundImageFix"/>
<feColorMatrix in="SourceAlpha" type="matrix" values="0 0 0 0 0 0 0 0 0 0 0 0 0 0 0 0 0 0 127 0"/>
<feOffset dy="4"/>
<feGaussianBlur stdDeviation="7.5"/>
<feColorMatrix type="matrix" values="0 0 0 0 0.137255 0 0 0 0 0.160784 0 0 0 0 0.211765 0 0 0 0.04 0"/>
<feBlend mode="normal" in2="BackgroundImageFix" result="effect1_dropShadow"/>
<feBlend mode="normal" in="SourceGraphic" in2="effect1_dropShadow" result="shape"/>
</filter>
<filter id="filter4_d" x="622.003" y="55.76" width="71.0017" height="56.24" filterUnits="userSpaceOnUse" color-interpolation-filters="sRGB">
<feFlood flood-opacity="0" result="BackgroundImageFix"/>
<feColorMatrix in="SourceAlpha" type="matrix" values="0 0 0 0 0 0 0 0 0 0 0 0 0 0 0 0 0 0 127 0"/>
<feOffset dy="4"/>
<feGaussianBlur stdDeviation="2"/>
<feColorMatrix type="matrix" values="0 0 0 0 0 0 0 0 0 0 0 0 0 0 0 0 0 0 0.25 0"/>
<feBlend mode="normal" in2="BackgroundImageFix" result="effect1_dropShadow"/>
<feBlend mode="normal" in="SourceGraphic" in2="effect1_dropShadow" result="shape"/>
</filter>
<filter id="filter5_d" x="550" y="54" width="69.9216" height="69.8939" filterUnits="userSpaceOnUse" color-interpolation-filters="sRGB">
<feFlood flood-opacity="0" result="BackgroundImageFix"/>
<feColorMatrix in="SourceAlpha" type="matrix" values="0 0 0 0 0 0 0 0 0 0 0 0 0 0 0 0 0 0 127 0"/>
<feOffset dy="4"/>
<feGaussianBlur stdDeviation="2"/>
<feColorMatrix type="matrix" values="0 0 0 0 0 0 0 0 0 0 0 0 0 0 0 0 0 0 0.25 0"/>
<feBlend mode="normal" in2="BackgroundImageFix" result="effect1_dropShadow"/>
<feBlend mode="normal" in="SourceGraphic" in2="effect1_dropShadow" result="shape"/>
</filter>
<linearGradient id="paint0_linear" x1="-561.795" y1="1322.03" x2="-561.795" y2="1288.24" gradientUnits="userSpaceOnUse">
<stop stop-color="white"/>
<stop offset="0.238" stop-color="#00EFFC"/>
<stop offset="0.44" stop-color="#00E5F4"/>
<stop offset="0.629" stop-color="#00D3E7"/>
<stop offset="0.802083" stop-color="#00BAD4"/>
<stop offset="0.983" stop-color="#009BBC"/>
<stop offset="1" stop-color="white"/>
</linearGradient>
<linearGradient id="paint1_linear" x1="-600.085" y1="1315.21" x2="-557.926" y2="1315.21" gradientUnits="userSpaceOnUse">
<stop stop-color="#49A09D"/>
<stop offset="0.149" stop-color="#4A989B"/>
<stop offset="0.375" stop-color="#4E8396"/>
<stop offset="0.65" stop-color="#C07B83"/>
<stop offset="0.822917" stop-color="#EA7380"/>
<stop offset="0.96" stop-color="#131D31"/>
</linearGradient>
<linearGradient id="paint2_linear" x1="-539.395" y1="1344.53" x2="-567.521" y2="1341.88" gradientUnits="userSpaceOnUse">
<stop stop-color="#131D32"/>
<stop offset="1" stop-color="#131D32"/>
</linearGradient>
<linearGradient id="paint3_linear" x1="-562.318" y1="1348.73" x2="-587.144" y2="1319.74" gradientUnits="userSpaceOnUse">
<stop stop-color="white"/>
<stop offset="0.247" stop-color="#5C5C5C"/>
<stop offset="0.75" stop-color="#1F324E"/>
<stop offset="1" stop-color="white"/>
</linearGradient>
<clipPath id="clip0">
<rect width="1280" height="720" fill="white"/>
</clipPath>
<clipPath id="clip1">
<rect width="408" height="724" fill="white" transform="translate(411 -4)"/>
</clipPath>
</defs>
</svg>
