<svg width="1280" height="720" viewBox="0 0 1280 720" fill="none" xmlns="http://www.w3.org/2000/svg">
<g clip-path="url(#clip0)">
<rect width="1280" height="720" fill="white"/>
<g clip-path="url(#clip1)">
<path d="M984.191 475.114C962.324 475.114 949.705 496.574 949.705 523.067C949.489 549.989 962.531 570.607 983.986 570.607C1005.65 570.607 1018.27 550.201 1018.27 522.446C1018.27 496.574 1006.07 475.114 984.191 475.114Z" fill="#653030"/>
<path d="M1198.08 182.823C1198.05 180.09 1197.18 177.39 1195.3 175.256L1080.38 43.9971C1080.36 43.9603 1080.32 43.9484 1080.29 43.9149C1079.61 43.1499 1078.82 42.519 1077.98 41.9629C1077.73 41.8005 1077.46 41.6545 1077.2 41.5062C1076.47 41.1102 1075.7 40.7812 1074.9 40.541C1074.69 40.4783 1074.48 40.3895 1074.27 40.3333C1073.4 40.1234 1072.5 40 1071.6 40H789.176C776.291 40 765.804 50.4884 765.804 63.3736V612.627C765.804 625.518 776.291 636.001 789.176 636.001H1174.82C1187.71 636.001 1198.2 625.518 1198.2 612.627V184.133C1198.2 183.693 1198.13 183.263 1198.08 182.823ZM843.476 595.845C827.273 595.845 811.294 591.633 803.305 587.211L809.821 560.717C818.437 565.134 831.696 569.551 845.359 569.551C860.089 569.551 867.865 563.445 867.865 554.19C867.865 545.35 861.145 540.312 844.107 534.218C820.555 526.013 805.194 512.962 805.194 492.356C805.194 468.168 825.394 449.657 858.832 449.657C874.82 449.657 886.598 453.024 895.006 456.813L887.85 482.679C882.176 479.951 872.079 475.962 858.202 475.962C844.313 475.962 837.594 482.262 837.594 489.629C837.594 498.672 845.58 502.667 863.876 509.607C888.901 518.862 900.692 531.906 900.692 551.889C900.686 575.645 882.381 595.845 843.476 595.845ZM1043.5 618.128C1023.31 612.239 1006.49 606.145 987.557 598.144C984.407 596.889 981.041 596.256 977.673 596.049C945.707 593.954 915.844 570.388 915.844 524.112C915.844 481.629 942.763 449.657 985.033 449.657C1028.37 449.657 1052.13 482.468 1052.13 521.167C1052.13 553.35 1037.2 576.066 1018.47 584.472V585.322C1029.42 588.483 1041.62 591.006 1052.76 593.305L1043.5 618.128ZM1161.72 593.739H1073.17V451.98H1105.36V566.812H1161.72V593.739ZM789.176 436.848V63.3736H1059.91V182.957C1059.91 189.408 1065.14 194.644 1071.6 194.644H1174.82L1174.83 436.848H789.176Z" fill="#653030"/>
<path d="M1045.53 225.217C1046.05 223.802 1046.41 222.353 1046.41 220.821C1046.41 202.008 1005.76 191.86 967.502 191.86C929.283 191.86 888.642 202.008 888.642 220.821C888.642 222.353 889 223.809 889.519 225.229L889.316 225.592C887.567 228.764 886.702 231.965 886.702 235.115V258.393C886.702 261.977 887.83 265.418 889.829 268.671L889.568 269.116C887.661 272.422 886.703 275.771 886.703 279.079V302.352C886.703 305.823 887.767 309.154 889.659 312.316L889.568 312.461C887.661 315.762 886.703 319.118 886.703 322.418V345.693C886.703 366.384 922.196 382.584 967.503 382.584C1012.86 382.584 1048.35 366.384 1048.35 345.693V322.418C1048.35 319.111 1047.39 315.75 1045.46 312.454L1045.38 312.326C1047.26 309.159 1048.35 305.83 1048.35 302.352V279.079C1048.35 275.767 1047.39 272.406 1045.46 269.105L1045.21 268.676C1047.21 265.418 1048.35 261.983 1048.35 258.388V235.11C1048.35 231.96 1047.47 228.75 1045.74 225.577L1045.53 225.217ZM1039.69 345.692C1039.69 359.056 1010.06 373.926 967.503 373.926C924.983 373.926 895.351 359.056 895.351 345.692V323.801C908.621 335.954 935.92 343.706 967.503 343.706C999.129 343.706 1026.43 335.949 1039.69 323.789V345.692ZM1039.69 302.351C1039.69 315.704 1010.06 330.585 967.503 330.585C924.983 330.585 895.351 315.704 895.351 302.351V280.457C908.621 292.605 935.92 300.364 967.503 300.364C999.129 300.364 1026.43 292.604 1039.69 280.445V302.351ZM1039.69 258.387C1039.69 271.739 1010.06 286.621 967.503 286.621C924.983 286.621 895.351 271.745 895.351 258.387V239.018C908.319 250.007 938.387 255.706 967.503 255.706C996.658 255.706 1026.71 250.007 1039.69 239.018V258.387Z" fill="#653030"/>
</g>
<path d="M296.567 19.7757C294.107 20.2538 290.28 21.4149 288.025 22.3028C285.77 23.1907 265.953 34.3236 243.95 47.0274C191.538 77.3526 137.623 108.429 80.0867 141.691C52.4117 157.605 31.57 170.104 28.9734 172.221C21.0467 178.71 14.2817 189.774 11.8217 200.293C10.66 205.21 10.5917 213.543 10.5917 353.694C10.5917 521.371 10.045 505.184 16.2634 517.956C18.9967 523.557 20.295 525.332 25.8984 530.933C32.2534 537.217 33.0734 537.763 53.3 549.374C64.78 555.931 80.6334 564.946 88.4917 569.522C109.538 581.612 125.802 588.373 139.605 590.764C147.668 592.198 169.193 591.72 176.983 590.012C192.29 586.597 205.342 578.948 213.883 568.293C218.12 563.034 224.338 550.672 226.183 543.91C229.737 530.728 229.6 536.192 229.6 379.102V233.008L227.618 231.028L225.637 229.047H207.392C196.253 229.047 188.668 229.32 187.848 229.73C184.295 231.642 184.5 223.105 184.5 376.712C184.5 531.343 184.705 522.395 180.81 530.113C172.405 546.71 151.017 551.628 129.628 541.998C127.168 540.836 119.378 536.602 112.272 532.504C105.233 528.406 89.995 519.595 78.3784 512.902C66.83 506.208 56.785 499.993 56.0334 499.037C54.6667 497.329 54.6667 496.1 54.6667 353.421C54.6667 217.777 54.735 209.445 55.8967 207.669C56.6484 206.44 61.3634 203.298 69.0167 198.927C78.6517 193.326 118.353 170.446 162.633 144.901C223.313 109.863 262.947 86.9829 281.533 76.2598C294.107 68.9517 305.177 62.873 306.065 62.5998C308.525 61.9851 309.823 62.5998 329.845 74.2108C339.89 80.0163 395.377 111.981 453.05 145.243C531.087 190.253 558.215 206.235 559.103 207.669C560.265 209.445 560.333 217.504 560.128 353.831L559.992 498.149L558.283 499.788C557.327 500.676 544.89 508.189 530.608 516.453C516.327 524.649 465.623 553.95 417.858 581.475C370.162 609.068 326.292 634.339 320.483 637.686C307.227 645.267 307.432 645.267 297.387 639.325C273.948 625.324 242.652 606.746 240.738 605.79C239.508 605.175 237.868 604.697 237.048 604.697C236.16 604.697 231.65 606.814 226.935 609.341C217.642 614.396 212.038 616.923 200.968 620.884C197.073 622.318 193.52 624.026 193.11 624.709C191.333 627.509 193.383 628.875 238.142 655.444C262.195 669.65 283.72 682.217 286.043 683.242C297.865 688.774 312.078 689.389 324.72 685.018C327.453 684.062 347.065 673.202 372.895 658.244C396.88 644.448 424.008 628.739 433.233 623.479C540.722 561.531 580.355 538.583 583.02 536.602C587.598 533.323 594.363 525.742 597.438 520.62C600.992 514.541 603.315 506.755 604.067 498.149C604.477 493.846 604.682 434.425 604.545 348.23C604.408 212.518 604.34 205.21 603.11 200.361C600.582 189.911 594.09 178.983 586.778 172.768C582.132 168.875 583.977 169.967 538.125 143.535C482.228 111.298 364.763 43.4075 346.45 32.821C337.977 27.9034 329.367 23.259 327.317 22.3711C318.57 18.8195 305.86 17.7267 296.567 19.7757Z" fill="#00982B"/>
<path d="M365.925 210.401C339.617 212.45 322.055 216.616 304.835 224.676C278.732 236.97 262.81 256.162 257.617 281.638C255.498 291.678 255.498 307.114 257.617 317.154C260.487 331.224 265.475 340.786 274.632 350.006C281.67 357.041 286.658 360.456 296.84 365.374C315.222 374.185 336.405 379.034 375.492 383.337C425.922 388.937 446.422 393.035 461.523 400.617C466.238 403.007 471.773 407.993 473.618 411.476C475.6 415.438 476.42 422.131 475.668 428.688C473.277 449.656 458.312 461.13 427.425 465.707C415.945 467.414 393.258 468.165 377.952 467.414C343.58 465.707 325.882 460.516 313.445 448.427C306.338 441.46 302.033 432.444 299.3 418.784C298.548 414.891 297.523 410.998 297.113 410.179C295.405 406.832 294.038 406.627 271.898 406.627H251.33L249.007 408.949C246.683 411.271 246.683 411.271 246.683 417.692C246.683 429.098 249.007 441.255 253.312 452.047C264.723 480.869 289.733 499.925 329.025 509.692C355.743 516.317 397.837 518.229 428.723 514.2C485.782 506.687 520.358 481.347 528.968 440.777C530.198 434.972 530.472 431.352 530.54 421.653C530.54 407.788 529.378 400.207 525.962 390.918C522.818 382.654 519.948 378.078 513.73 371.453C502.182 359.227 486.465 351.236 460.908 344.816C445.533 340.922 431.867 338.464 397.358 333.614C335.38 324.804 318.775 319.886 312.762 308.685C311.463 306.226 311.258 304.86 311.258 297.006C311.327 289.356 311.532 287.648 312.898 284.37C317.34 273.715 327.18 266.68 343.58 262.446C356.222 259.236 378.088 257.87 397.358 259.031C418.268 260.397 428.792 262.582 439.998 268.046C454.553 275.15 462.412 286.351 468.083 308.207C468.493 309.846 469.723 312.1 470.817 313.193L472.73 315.105H493.913C513.867 315.105 515.165 315.037 516.737 313.739C519.812 311.349 520.29 308.958 519.402 301.582C517.557 286.761 514.003 274.808 507.922 263.129C491.385 231.301 457.697 214.363 403.167 210.606C394.078 209.991 372.485 209.855 365.925 210.401Z" fill="#00982B"/>
<path d="M831.458 537.5H695.208V666.5H649.792V537.5H513.542V494.5H649.792V365.5H695.208V494.5H831.458V537.5Z" fill="#4E4545"/>
</g>
<defs>
<clipPath id="clip0">
<rect width="1280" height="720" fill="white"/>
</clipPath>
<clipPath id="clip1">
<rect width="596" height="596" fill="white" transform="translate(684 40)"/>
</clipPath>
</defs>
</svg>
