<svg width="1280" height="720" viewBox="0 0 1280 720" fill="none" xmlns="http://www.w3.org/2000/svg">
<rect width="1280" height="720" fill="white"/>
<path d="M1280 0H0V720H1280V0Z" fill="#6082BB"/>
<g clip-path="url(#clip0)">
<path d="M938.708 479.818H938.708C938.623 490.344 941.134 499.509 945.639 505.997C950.116 512.445 956.566 516.273 964.586 516.273C972.694 516.273 979.095 512.484 983.526 506.007C987.989 499.482 990.467 490.189 990.467 479.31L938.708 479.818ZM938.708 479.818V479.806M938.708 479.818V479.806M938.708 479.806C938.708 469.441 941.179 460.183 945.671 453.564M938.708 479.806L945.671 453.564M945.671 453.564C950.134 446.987 956.582 443.007 964.75 443.007M945.671 453.564L964.75 443.007M964.75 443.007C972.919 443.007 979.284 446.984 983.666 453.497M964.75 443.007L983.666 453.497M983.666 453.497C988.077 460.054 990.466 469.19 990.467 479.309L983.666 453.497Z" fill="#F3C212" stroke="black" stroke-width="3"/>
<path d="M1134.08 208.086L1134.08 208.154L1134.08 208.221C1134.1 208.368 1134.11 208.488 1134.12 208.59C1134.15 208.806 1134.17 208.947 1134.17 209.116V551.333C1134.17 560.8 1126.46 568.501 1117 568.501H809C799.537 568.501 791.833 560.8 791.833 551.333V112.667C791.833 103.205 799.538 95.5 809 95.5H1034.56C1035.14 95.5 1035.73 95.5788 1036.32 95.7201C1036.34 95.7256 1036.37 95.7362 1036.44 95.7604L1036.47 95.7711C1036.54 95.7951 1036.65 95.8342 1036.75 95.8667L1036.75 95.8668L1036.76 95.8701C1037.3 96.0277 1037.81 96.2458 1038.31 96.5161C1038.31 96.5179 1038.31 96.5198 1038.32 96.5216L1038.34 96.5353C1038.54 96.6479 1038.69 96.7328 1038.83 96.824C1039.42 97.2111 1039.93 97.6267 1040.37 98.1072C1040.39 98.136 1040.42 98.1622 1040.44 98.186C1040.47 98.2129 1040.49 98.2368 1040.51 98.2577L1132.23 203.012L1132.23 203.014C1133.46 204.41 1134.05 206.204 1134.08 208.086ZM818.827 530.676L818.553 531.791L819.557 532.347C826.208 536.028 839.233 539.43 852.367 539.43C868.152 539.43 879.954 535.33 887.836 528.635C895.736 521.924 899.56 512.716 899.563 502.825C899.563 494.516 897.099 487.559 891.983 481.736C886.904 475.955 879.299 471.391 869.185 467.65C861.846 464.866 856.784 462.745 853.545 460.478C851.949 459.362 850.871 458.26 850.186 457.098C849.511 455.953 849.169 454.668 849.169 453.099C849.169 450.659 850.264 448.371 852.624 446.647C855.018 444.897 858.789 443.685 864.128 443.685C874.913 443.685 882.749 446.782 887.157 448.901L888.774 449.678L889.252 447.949L894.967 427.291L895.31 426.052L894.138 425.523C887.238 422.413 877.621 419.676 864.631 419.676C851.009 419.676 839.936 423.448 832.24 429.828C824.525 436.223 820.293 445.172 820.293 455.278C820.293 472.721 833.377 483.507 852.371 490.125C859.154 492.552 863.682 494.704 866.509 497.024C869.236 499.261 870.345 501.62 870.345 504.662C870.345 507.88 869.021 510.487 866.402 512.344C863.722 514.243 859.574 515.43 853.871 515.43C843.251 515.43 832.897 511.987 826.172 508.54L824.484 507.674L824.031 509.516L818.827 530.676ZM1011.7 557.166L1013.04 557.556L1013.52 556.25L1020.91 536.425L1021.53 534.786L1019.81 534.432C1011.87 532.794 1003.32 531.024 995.41 528.885C1009.72 521.013 1020.51 502.923 1020.51 478.288C1020.51 462.538 1015.67 447.89 1006.32 437.156C996.954 426.397 983.137 419.676 965.423 419.676C948.141 419.676 933.914 426.223 924.02 437.179C914.14 448.12 908.664 463.362 908.664 480.64C908.664 499.458 914.745 513.79 924.199 523.637C933.639 533.471 946.35 538.732 959.446 539.59L959.453 539.59C962.015 539.747 964.536 540.226 966.869 541.154C982.033 547.561 995.52 552.447 1011.7 557.166ZM1106.54 537.748H1108.04V536.248V514.742V513.242H1106.54H1063.02V423.031V421.531H1061.52H1035.82H1034.32V423.031V536.248V537.748H1035.82H1106.54ZM807.5 410.946V412.446H809H1117.01H1118.51L1118.51 410.946L1118.5 217.507L1118.5 216.007H1117H1034.56C1030.23 216.007 1026.72 212.498 1026.72 208.174V112.667V111.167H1025.22H809H807.5V112.667V410.946Z" fill="#F3C212" stroke="black" stroke-width="3"/>
<path d="M1012.33 241.413L1012.09 242.069L1012.44 242.673L1012.6 242.946C1013.87 245.288 1014.49 247.601 1014.49 249.826V268.417C1014.49 270.958 1013.69 273.433 1012.21 275.85L1011.74 276.615L1012.19 277.39L1012.39 277.732L1012.39 277.733C1013.81 280.17 1014.49 282.596 1014.49 284.942V303.529C1014.49 305.982 1013.73 308.379 1012.33 310.731L1011.87 311.512L1012.35 312.285L1012.4 312.371C1013.82 314.798 1014.49 317.218 1014.49 319.555V338.144C1014.49 345.474 1008.16 352.465 996.668 357.708C985.295 362.898 969.376 366.107 951.422 366.107C933.487 366.107 917.578 362.898 906.21 357.708C894.726 352.465 888.391 345.474 888.391 338.144V319.555C888.391 317.226 889.063 314.81 890.464 312.376L890.522 312.284L891.01 311.505L890.538 310.717C889.14 308.38 888.391 305.983 888.391 303.529V284.942C888.391 282.602 889.066 280.185 890.474 277.74L890.68 277.391L891.138 276.613L890.665 275.844C889.185 273.436 888.39 270.956 888.39 268.422V249.83C888.39 247.599 889 245.291 890.288 242.953L890.447 242.669L890.785 242.067L890.548 241.42C890.169 240.383 889.939 239.403 889.939 238.414C889.939 235.262 891.626 232.325 894.936 229.623C898.256 226.914 903.075 224.563 908.95 222.64C920.688 218.799 936.267 216.784 951.421 216.784C966.591 216.784 982.179 218.799 993.923 222.64C999.802 224.563 1004.62 226.914 1007.94 229.624C1011.25 232.325 1012.94 235.262 1012.94 238.414C1012.94 239.399 1012.71 240.373 1012.33 241.413ZM894.811 319.553L892.297 317.252V320.66V338.143C892.297 341.384 894.087 344.494 896.992 347.256C899.913 350.034 904.105 352.606 909.29 354.802C919.671 359.198 934.283 362.193 951.422 362.193C968.577 362.193 983.196 359.198 993.579 354.802C998.767 352.606 1002.96 350.034 1005.88 347.256C1008.79 344.494 1010.57 341.384 1010.57 338.143V320.65V317.24L1008.06 319.544C1003 324.182 995.152 328.073 985.346 330.801C975.563 333.522 963.935 335.057 951.422 335.057C938.927 335.057 927.307 333.523 917.527 330.803C907.725 328.077 899.871 324.189 894.811 319.553ZM894.81 284.936L892.297 282.636V286.042V303.529C892.297 306.767 894.087 309.876 896.992 312.638C899.913 315.415 904.104 317.987 909.29 320.184C919.671 324.581 934.283 327.578 951.422 327.578C968.577 327.578 983.196 324.581 993.58 320.184C998.767 317.987 1002.96 315.415 1005.88 312.638C1008.78 309.876 1010.57 306.767 1010.57 303.529V286.033V282.623L1008.06 284.927C1003 289.565 995.151 293.456 985.346 296.184C975.563 298.906 963.935 300.442 951.422 300.442C938.927 300.442 927.307 298.906 917.527 296.185C907.725 293.459 899.871 289.57 894.81 284.936ZM894.767 251.803L892.297 249.71V252.947V268.416C892.297 271.656 894.087 274.765 896.992 277.528C899.913 280.304 904.105 282.877 909.29 285.073C919.671 289.47 934.283 292.466 951.422 292.466C968.577 292.466 983.196 289.469 993.58 285.071C998.767 282.875 1002.96 280.302 1005.88 277.526C1008.78 274.764 1010.57 271.655 1010.57 268.416V252.947V249.711L1008.1 251.803C1003.21 255.951 994.906 259.218 984.773 261.437C974.688 263.645 962.975 264.775 951.422 264.775C939.884 264.775 928.177 263.645 918.094 261.437C907.963 259.218 899.662 255.951 894.767 251.803Z" fill="#F3C212" stroke="black" stroke-width="3"/>
</g>
<path d="M479.144 396.157C493.203 396.157 503.699 393.101 510.34 387.077C516.91 381.115 521.448 370.785 523.826 356.376C526.044 342.908 525.199 333.504 521.316 328.429C517.346 323.245 508.762 320.617 495.804 320.617H473.336L460.88 396.157H479.144ZM405.656 489.209C404.613 489.209 403.623 488.66 402.96 487.709C402.295 486.76 402.026 485.51 402.225 484.303L435.236 284.12C435.555 282.184 436.995 280.786 438.668 280.786H509.814C532.174 280.786 548.817 287.942 559.278 302.057C569.795 316.246 573.043 336.08 568.93 361.007C567.257 371.163 564.379 380.594 560.376 389.038C556.368 397.492 551.072 405.314 544.631 412.291C536.922 420.796 528.196 426.962 518.72 430.591C509.394 434.172 497.417 435.987 483.122 435.987H454.313L446.086 485.874C445.767 487.811 444.329 489.209 442.656 489.209H405.656V489.209Z" fill="white"/>
<path d="M656.661 435.987C655.63 435.987 654.653 435.438 653.999 434.488C653.342 433.539 653.076 432.29 653.273 431.081L667.688 342.508C669.059 334.085 668.721 328.039 666.737 325.484C665.522 323.922 661.873 321.303 651.084 321.303H624.968L606.844 432.653C606.529 434.589 605.108 435.987 603.456 435.987H567.219C566.189 435.987 565.212 435.438 564.556 434.488C563.9 433.539 563.635 432.289 563.831 431.081L596.419 230.898C596.734 228.963 598.155 227.565 599.807 227.565H636.044C637.074 227.565 638.051 228.114 638.707 229.063C639.362 230.013 639.628 231.262 639.431 232.471L631.568 280.786H659.662C681.064 280.786 695.578 285.291 704.03 294.559C712.647 304.014 715.335 319.132 712.022 339.498L696.86 432.653C696.545 434.589 695.125 435.987 693.472 435.987H656.661Z" fill="white"/>
<path d="M778.725 396.157C793.324 396.157 804.223 393.101 811.118 387.077C817.941 381.116 822.652 370.786 825.123 356.376C827.426 342.908 826.549 333.504 822.516 328.429C818.393 323.245 809.48 320.617 796.025 320.617H772.694L759.761 396.157H778.725V396.157ZM702.419 489.209C701.336 489.209 700.308 488.66 699.619 487.709C698.93 486.76 698.649 485.51 698.856 484.303L733.133 284.12C733.466 282.184 734.959 280.786 736.698 280.786H810.573C833.792 280.786 851.072 287.942 861.935 302.057C872.856 316.245 876.227 336.079 871.958 361.007C870.218 371.163 867.23 380.594 863.074 389.038C858.913 397.492 853.413 405.314 846.726 412.291C838.72 420.796 829.66 426.962 819.82 430.591C810.136 434.172 797.699 435.987 782.856 435.987H752.941L744.402 485.874C744.069 487.811 742.576 489.209 740.837 489.209H702.419V489.209Z" fill="white"/>
<defs>
<clipPath id="clip0">
<rect width="476" height="476" fill="white" transform="translate(725 94)"/>
</clipPath>
</defs>
</svg>
