<svg width="284" height="261" viewBox="0 0 284 261" fill="none" xmlns="http://www.w3.org/2000/svg">
<g clip-path="url(#clip0)">
<path d="M150.492 23.7412C81.2655 23.7412 25.082 76.9215 25.082 142.447C25.082 207.973 81.2655 261.153 150.492 261.153C219.718 261.153 275.901 207.973 275.901 142.447C275.901 76.9215 219.718 23.7412 150.492 23.7412ZM150.492 59.353C171.31 59.353 188.115 75.2596 188.115 94.9648C188.115 114.67 171.31 130.577 150.492 130.577C129.674 130.577 112.869 114.67 112.869 94.9648C112.869 75.2596 129.674 59.353 150.492 59.353ZM150.492 227.916C119.139 227.916 91.4237 212.721 75.2458 189.692C75.6221 166.07 125.41 153.131 150.492 153.131C175.448 153.131 225.361 166.07 225.738 189.692C209.56 212.721 181.844 227.916 150.492 227.916Z" fill="#F39696"/>
</g>
<defs>
<clipPath id="clip0">
<rect width="284" height="261" fill="white"/>
</clipPath>
</defs>
</svg>
